<?xml version="1.0"?>
<svg xmlns="http://www.w3.org/2000/svg" viewBox="0 0 64 64"><g id="badminton_court-badminton-coronavirus-virus-outbreck" data-name="badminton court-badminton-coronavirus-virus-outbreck"><path d="M61,22H57a1,1,0,0,0-1,1v1H8V23a1,1,0,0,0-1-1H3a1,1,0,0,0-1,1V61a1,1,0,0,0,1,1H7a1,1,0,0,0,1-1V44H56V61a1,1,0,0,0,1,1h4a1,1,0,0,0,1-1V23A1,1,0,0,0,61,22ZM6,60H4V24H6Zm7-18H8V38h5Zm0-6H8V32h5Zm0-6H8V26h5Zm6,12H15V38h4Zm0-6H15V32h4Zm0-6H15V26h4Zm6,12H21V38h4Zm0-6H21V32h4Zm0-6H21V26h4Zm6,12H27V38h4Zm0-6H27V32h4Zm0-6H27V26h4Zm6,12H33V38h4Zm0-6H33V32h4Zm0-6H33V26h4Zm6,12H39V38h4Zm0-6H39V32h4Zm0-6H39V26h4Zm6,12H45V38h4Zm0-6H45V32h4Zm0-6H45V26h4Zm7,12H51V38h5Zm0-6H51V32h5Zm0-6H51V26h5Zm4,30H58V24h2Z"/><path d="M38.06,2.66,37.21,5H33V3H31V5H26.79l-.85-2.34-1.88.68L28,14.18V15a4,4,0,0,0,8,0v-.82L39.94,3.34ZM27.52,7H31V9H28.25Zm1.45,4H31v2H29.7ZM32,17a2.006,2.006,0,0,1-2-2h4A2.006,2.006,0,0,1,32,17Zm2.3-4H33V11h2.03Zm1.45-4H33V7h3.48Z"/><path d="M51,52H43a1,1,0,0,0-1,1v1H29.92A7,7,0,0,0,23,48H19a7,7,0,0,0,0,14h4a7,7,0,0,0,6.92-6H42v1a1,1,0,0,0,1,1h8a1,1,0,0,0,1-1V53A1,1,0,0,0,51,52Zm-25-.97a4.462,4.462,0,0,1,.97.97H26ZM16,58.97a4.462,4.462,0,0,1-.97-.97H16ZM16,56H14.1a5.05,5.05,0,0,1,0-2H16Zm0-4h-.97a4.462,4.462,0,0,1,.97-.97Zm4,8H19a5.468,5.468,0,0,1-1-.1V58h2Zm0-4H18V54h2Zm0-4H18V50.1a5.468,5.468,0,0,1,1-.1h1Zm4,7.9a5.468,5.468,0,0,1-1,.1H22V58h2ZM24,56H22V54h2Zm0-4H22V50h1a5.468,5.468,0,0,1,1,.1Zm2,6.97V58h.97A4.462,4.462,0,0,1,26,58.97ZM27.9,56H26V54h1.9a5.05,5.05,0,0,1,0,2ZM50,56H44V54h6Z"/><rect x="11" y="11" width="2" height="2"/><path d="M4,14a1.993,1.993,0,0,0,1.722-1H7.1a4.961,4.961,0,0,0,.732,1.753l-.99.99a2.033,2.033,0,0,0-1.914.5h0a2.012,2.012,0,1,0,3.34.9l.978-.978A4.961,4.961,0,0,0,11,16.9v1.379a2,2,0,1,0,2,0V16.9a4.961,4.961,0,0,0,1.753-.732l.978.978a1.95,1.95,0,0,0,.512,1.926h0a2,2,0,1,0,2.828-2.828,2.033,2.033,0,0,0-1.914-.5l-.99-.99A4.961,4.961,0,0,0,16.9,13h1.379a2,2,0,1,0,0-2H16.9a4.961,4.961,0,0,0-.732-1.753l.978-.978a1.95,1.95,0,0,0,1.926-.512h0a2,2,0,0,0,0-2.827,2.046,2.046,0,0,0-2.828,0,1.95,1.95,0,0,0-.512,1.926l-.978.978A4.961,4.961,0,0,0,13,7.1V5.722a2,2,0,1,0-2,0V7.1a4.961,4.961,0,0,0-1.753.732l-.978-.978a1.95,1.95,0,0,0-.512-1.926h0a2.046,2.046,0,0,0-2.827,0,1.989,1.989,0,0,0,1.925,3.34l.978.978A4.961,4.961,0,0,0,7.1,11H5.722A2,2,0,1,0,4,14Zm8-5a3,3,0,1,1-3,3A3,3,0,0,1,12,9Z"/><rect x="51" y="11" width="2" height="2"/><path d="M44,14a1.993,1.993,0,0,0,1.722-1H47.1a4.961,4.961,0,0,0,.732,1.753l-.99.99a2.033,2.033,0,0,0-1.914.5h0a2.012,2.012,0,1,0,3.34.9l.978-.978A4.961,4.961,0,0,0,51,16.9v1.379a2,2,0,1,0,2,0V16.9a4.961,4.961,0,0,0,1.753-.732l.978.978a1.95,1.95,0,0,0,.512,1.926h0a2,2,0,1,0,2.828-2.828,2.033,2.033,0,0,0-1.914-.5l-.99-.99A4.961,4.961,0,0,0,56.9,13h1.379a2,2,0,1,0,0-2H56.9a4.961,4.961,0,0,0-.732-1.753l.978-.978a1.95,1.95,0,0,0,1.926-.512h0a2,2,0,0,0,0-2.827,2.046,2.046,0,0,0-2.828,0,1.95,1.95,0,0,0-.512,1.926l-.978.978A4.961,4.961,0,0,0,53,7.1V5.722a2,2,0,1,0-2,0V7.1a4.961,4.961,0,0,0-1.753.732l-.978-.978a1.95,1.95,0,0,0-.512-1.926h0a2.046,2.046,0,0,0-2.827,0,1.989,1.989,0,0,0,1.925,3.34l.978.978A4.961,4.961,0,0,0,47.1,11H45.722A2,2,0,1,0,44,14Zm8-5a3,3,0,1,1-3,3A3,3,0,0,1,52,9Z"/></g></svg>
