<svg id="Layer_1" enable-background="new 0 0 511.676 511.676" height="512" viewBox="0 0 511.676 511.676" width="512" xmlns="http://www.w3.org/2000/svg"><g><ellipse cx="90.359" cy="116.672" rx="34.483" ry="34.483" transform="matrix(.961 -.278 .278 .961 -28.837 29.669)"/><path d="m156.129 261.538v3.187c0 5.081 4.119 9.2 9.2 9.2h186.997c5.081 0 9.2-4.119 9.2-9.2v-4.294l-29.401-1.044c-10.36-.368-19.022-6.988-22.489-16.104h-32.106c2.012-1.175 3.283-3.481 2.92-6.051-.422-2.99-3.133-5.129-6.153-5.129h-38.056c-3.019 0-5.731 2.139-6.153 5.129-.362 2.569.909 4.875 2.92 6.051h-30.513c-3.106 9.79-12.093 17.039-22.945 17.424z"/><path d="m180.802 300.643c-2.179-6.408-7.438-11.286-13.991-12.978l-46.104-11.903v-12.967l-8.222.292c-1.62-.298-13.418 2.679-19.452-8.241l-16.747-30.449 22.988 25.026c3.175 3.456 7.647 5.414 12.322 5.414.198 0 .396-.003.595-.011l67.067-2.381c9.235-.328 16.457-8.081 16.129-17.316-.249-7.006-4.748-12.844-10.957-15.116.874-1.46 9.044-15.111 10.467-17.488 1.555-2.598-.317-5.9-3.345-5.9h-6.661c-2.9 0-5.568 1.581-6.961 4.125-2.469 4.508-7.821 14.281-10.196 18.617l-49.028 1.74-19.414-21.135 18.607 12.892 2.807-.1v-24.302c0-12.627-10.236-22.863-22.863-22.863h-39.495c-12.627 0-22.863 10.236-22.863 22.863v101.755c0 10.808 6.555 20.084 15.906 24.074h-16.171c-4.636 0-8.407-3.771-8.407-8.407v-122.035c0-7.404-6.002-13.406-13.406-13.406s-13.407 6.002-13.407 13.406v122.035c0 16.641 11.605 30.613 27.144 34.274v80.648c0 5.523 4.478 10 10 10s10-4.477 10-10v-79.703h58.588v79.703c0 5.523 4.478 10 10 10s10-4.477 10-10v-79.703h13.736c4.441 0 8.366-2.169 10.806-5.495l27.739 81.577c3.564 10.483 14.959 16.122 25.476 12.546 10.499-3.57 16.116-14.976 12.546-25.475z"/><ellipse cx="421.317" cy="115.353" rx="34.483" ry="34.483" transform="matrix(.655 -.755 .755 .655 58.104 358.027)"/><path d="m498.27 171.762c-7.404 0-13.406 6.002-13.406 13.406v119.396c0 4.636-3.771 8.407-8.407 8.407h-16.171c9.351-3.989 15.906-13.265 15.906-24.073v-101.755c0-12.627-10.236-22.863-22.863-22.863h-39.496c-12.627 0-22.863 10.236-22.863 22.863v24.302l2.807.1 18.606-12.891-19.414 21.134-48.483-1.721c-1.335-1.634-13.825-16.925-15.371-18.817-1.356-1.66-3.39-2.617-5.533-2.604l-8.07.05c-4.17.026-6.399 4.921-3.681 8.084 1.678 1.952 11.879 13.822 12.951 15.07-4.886 2.774-8.28 7.933-8.494 13.96-.328 9.236 6.894 16.989 16.129 17.316 71.546 2.536 67.108 2.392 67.662 2.392 4.674 0 9.147-1.958 12.322-5.414l22.989-25.027-16.748 30.451c-5.976 10.866-17.993 8.001-19.452 8.241l-8.222-.292v14.286l-46.104 11.903c-6.553 1.692-11.813 6.57-13.991 12.978l-35.232 103.614c-3.57 10.5 2.047 21.905 12.546 25.475 10.52 3.578 21.913-2.068 25.476-12.546l28.047-82.484c2.456 3.093 6.241 5.083 10.498 5.083h13.737v81.022c0 5.523 4.478 10 10 10s10-4.477 10-10v-81.022h58.587v81.022c0 5.523 4.478 10 10 10s10-4.477 10-10v-81.968c15.539-3.661 27.144-17.633 27.144-34.274v-119.398c0-7.403-6.002-13.406-13.406-13.406z"/></g></svg>