<?xml version="1.0" encoding="UTF-8"?>
<!DOCTYPE svg PUBLIC "-//W3C//DTD SVG 1.1//EN" "http://www.w3.org/Graphics/SVG/1.1/DTD/svg11.dtd">
<!-- Creator: CorelDRAW 2019 (64-Bit) -->
<svg xmlns="http://www.w3.org/2000/svg" xml:space="preserve" width="2480px" height="1323px" version="1.1" style="shape-rendering:geometricPrecision; text-rendering:geometricPrecision; image-rendering:optimizeQuality; fill-rule:evenodd; clip-rule:evenodd"
viewBox="0 0 2480 1323"
 xmlns:xlink="http://www.w3.org/1999/xlink"
 xmlns:xodm="http://www.corel.com/coreldraw/odm/2003"
 data-name="Layer 1">
 <defs>
  <style type="text/css">
   <![CDATA[
    .str0 {stroke:#15A8AB;stroke-width:10.29;stroke-miterlimit:22.9256;stroke-dasharray:30.860000;stroke-opacity:0.301961}
    .str1 {stroke:#9EDBFF;stroke-width:10.29;stroke-miterlimit:22.9256;stroke-dasharray:30.860000;stroke-opacity:0.301961}
    .fil3 {fill:none;fill-rule:nonzero}
    .fil0 {fill:none}
    .fil7 {fill:#00897B;fill-rule:nonzero}
    .fil2 {fill:#009688;fill-rule:nonzero}
    .fil24 {fill:lime;fill-rule:nonzero}
    .fil5 {fill:#795548;fill-rule:nonzero}
    .fil16 {fill:#E83535;fill-rule:nonzero}
    .fil23 {fill:#F2F2F2;fill-rule:nonzero}
    .fil21 {fill:#F85359;fill-rule:nonzero}
    .fil14 {fill:white;fill-rule:nonzero}
    .fil25 {fill:#E83535;fill-rule:nonzero;fill-opacity:0.200000}
    .fil19 {fill:white;fill-rule:nonzero;fill-opacity:0.501961}
    .fil17 {fill:white;fill-rule:nonzero;fill-opacity:0.701961}
    .fil12 {fill:url(#id0);fill-rule:nonzero}
    .fil1 {fill:url(#id1);fill-rule:nonzero}
    .fil10 {fill:url(#id2);fill-rule:nonzero}
    .fil28 {fill:url(#id3);fill-rule:nonzero}
    .fil31 {fill:url(#id4);fill-rule:nonzero}
    .fil27 {fill:url(#id5);fill-rule:nonzero}
    .fil15 {fill:url(#id6);fill-rule:nonzero}
    .fil29 {fill:url(#id7);fill-rule:nonzero}
    .fil8 {fill:url(#id8);fill-rule:nonzero}
    .fil34 {fill:url(#id9);fill-rule:nonzero}
    .fil33 {fill:url(#id10);fill-rule:nonzero}
    .fil20 {fill:url(#id11);fill-rule:nonzero}
    .fil26 {fill:url(#id12);fill-rule:nonzero}
    .fil18 {fill:url(#id13);fill-rule:nonzero}
    .fil32 {fill:url(#id14);fill-rule:nonzero}
    .fil11 {fill:url(#id15);fill-rule:nonzero}
    .fil6 {fill:url(#id16);fill-rule:nonzero}
    .fil30 {fill:url(#id17);fill-rule:nonzero}
    .fil4 {fill:url(#id18);fill-rule:nonzero}
    .fil9 {fill:url(#id19);fill-rule:nonzero}
    .fil13 {fill:url(#id20);fill-rule:nonzero}
    .fil22 {fill:url(#id21);fill-rule:nonzero;fill-opacity:0.200000}
   ]]>
  </style>
  <linearGradient id="id0" gradientUnits="userSpaceOnUse" x1="13673.4" y1="206277.58" x2="13673.4" y2="135712.79">
   <stop offset="0" style="stop-opacity:0.25098; stop-color:gray"/>
   <stop offset="0.541176" style="stop-opacity:0.121569; stop-color:gray"/>
   <stop offset="1" style="stop-opacity:0.101961; stop-color:gray"/>
  </linearGradient>
  <linearGradient id="id1" gradientUnits="userSpaceOnUse" xlink:href="#id0" x1="2198.22" y1="996.31" x2="2198.22" y2="438.21">
  </linearGradient>
  <linearGradient id="id2" gradientUnits="userSpaceOnUse" xlink:href="#id0" x1="18399.56" y1="204277.6" x2="18399.56" y2="134197.71">
  </linearGradient>
  <linearGradient id="id3" gradientUnits="userSpaceOnUse" xlink:href="#id0" x1="66617.61" y1="-177107.16" x2="66617.61" y2="-216383.16">
  </linearGradient>
  <linearGradient id="id4" gradientUnits="userSpaceOnUse" xlink:href="#id0" x1="1336.33" y1="173625.68" x2="1336.33" y2="124582.18">
  </linearGradient>
  <linearGradient id="id5" gradientUnits="userSpaceOnUse" xlink:href="#id0" x1="2310.74" y1="173194.39" x2="2310.74" y2="124491.15">
  </linearGradient>
  <linearGradient id="id6" gradientUnits="userSpaceOnUse" xlink:href="#id0" x1="724386.45" y1="-117897.13" x2="724386.45" y2="-153708.6">
  </linearGradient>
  <linearGradient id="id7" gradientUnits="userSpaceOnUse" xlink:href="#id0" x1="1239.53" y1="173194.39" x2="1239.53" y2="124491.15">
  </linearGradient>
  <linearGradient id="id8" gradientUnits="userSpaceOnUse" xlink:href="#id0" x1="21768.73" y1="298803.11" x2="21768.73" y2="142172.25">
  </linearGradient>
  <linearGradient id="id9" gradientUnits="userSpaceOnUse" x1="322024.21" y1="-47287.11" x2="322024.21" y2="-56089.02">
   <stop offset="0" style="stop-opacity:0.121569; stop-color:black"/>
   <stop offset="0.54902" style="stop-opacity:0.0901961; stop-color:black"/>
   <stop offset="1" style="stop-opacity:0.0196078; stop-color:black"/>
  </linearGradient>
  <linearGradient id="id10" gradientUnits="userSpaceOnUse" xlink:href="#id9" x1="1341.96" y1="412.49" x2="1341.96" y2="363.62">
  </linearGradient>
  <linearGradient id="id11" gradientUnits="userSpaceOnUse" xlink:href="#id0" x1="231894.21" y1="-567.66" x2="231894.21" y2="-77502.73">
  </linearGradient>
  <linearGradient id="id12" gradientUnits="userSpaceOnUse" xlink:href="#id0" x1="82404.84" y1="-177107.16" x2="82404.84" y2="-216383.16">
  </linearGradient>
  <linearGradient id="id13" gradientUnits="userSpaceOnUse" xlink:href="#id0" x1="200255.83" y1="-14929.69" x2="200255.83" y2="-590342.68">
  </linearGradient>
  <linearGradient id="id14" gradientUnits="userSpaceOnUse" x1="1676.46" y1="1070.9" x2="1676.46" y2="49.85">
   <stop offset="0" style="stop-opacity:0.25098; stop-color:#B3B3B3"/>
   <stop offset="0.541176" style="stop-opacity:0.101961; stop-color:#B3B3B3"/>
   <stop offset="1" style="stop-opacity:0.0509804; stop-color:#B3B3B3"/>
  </linearGradient>
  <linearGradient id="id15" gradientUnits="userSpaceOnUse" xlink:href="#id0" x1="306141.9" y1="-199452.69" x2="306141.9" y2="-256713.15">
  </linearGradient>
  <linearGradient id="id16" gradientUnits="userSpaceOnUse" xlink:href="#id0" x1="497959.29" y1="-232183.25" x2="497959.29" y2="-359276.15">
  </linearGradient>
  <linearGradient id="id17" gradientUnits="userSpaceOnUse" xlink:href="#id0" x1="67344.19" y1="-178480.34" x2="67344.19" y2="-218278.69">
  </linearGradient>
  <linearGradient id="id18" gradientUnits="userSpaceOnUse" xlink:href="#id0" x1="30862.62" y1="290533.09" x2="30862.62" y2="139618.58">
  </linearGradient>
  <linearGradient id="id19" gradientUnits="userSpaceOnUse" xlink:href="#id0" x1="334693.15" y1="-196477" x2="334693.15" y2="-252980.51">
  </linearGradient>
  <linearGradient id="id20" gradientUnits="userSpaceOnUse" xlink:href="#id0" x1="397234.79" y1="314592.21" x2="397234.79" y2="152558.66">
  </linearGradient>
  <radialGradient id="id21" gradientUnits="userSpaceOnUse" gradientTransform="matrix(-0.0221931 -2.42003 2.42003 -0.0221932 -767 2253)" cx="676.35" cy="602.67" r="443.75" fx="676.35" fy="602.67">
   <stop offset="0" style="stop-opacity:1; stop-color:#FEFEFE"/>
   <stop offset="0.329412" style="stop-opacity:1; stop-color:#F8FCFF"/>
   <stop offset="0.65098" style="stop-opacity:1; stop-color:#CEEBFF"/>
   <stop offset="1" style="stop-opacity:1; stop-color:#9AC3E8"/>
  </radialGradient>
 </defs>
 <g id="Layer_x0020_1">
  <metadata id="CorelCorpID_0Corel-Layer"/>
  <path class="fil0 str0" d="M1022.85 638.81c0,-258.51 -209.57,-468.09 -468.09,-468.09 -258.52,0 -468.09,209.58 -468.09,468.09 0,258.52 209.57,468.09 468.09,468.09 258.52,0 468.09,-209.57 468.09,-468.09z"/>
  <path class="fil0 str1" d="M2257.37 546.22c0,-258.51 -209.57,-468.08 -468.09,-468.08 -258.51,0 -468.08,209.57 -468.08,468.08 0,258.52 209.57,468.09 468.08,468.09 258.52,0 468.09,-209.57 468.09,-468.09z"/>
  <g id="ff8ee4b4-5abc-4927-bead-5d69132ee8f9" data-name="&lt;Group&gt;">
   <path class="fil1" d="M1970.25 727.11c-20.17,-21.43 -31.42,-49.76 -31.43,-79.19 0.22,-41.29 22.14,-79.46 57.66,-100.48 -7.82,-11.35 -12.01,-24.8 -12.04,-38.58 0,-38.81 32.56,-70.27 72.74,-70.27 0.23,0 0.5,0 0.73,0 31.59,0 59.54,20.48 69.05,50.59 20.01,-31.5 54.76,-50.59 92.09,-50.59 0.23,0 0.47,0 0.69,0 59.85,0 108.38,46.88 108.38,104.7 0.01,0.01 0.01,0.06 0.01,0.07 0,12.32 -2.25,24.56 -6.63,36.06 2.18,-0.15 4.39,-0.33 6.63,-0.33 48.05,0 86.98,37.63 86.98,84.05 0,0.01 0,0.03 0,0.03 0,2.81 -0.16,5.66 -0.44,8.46 38.42,16 65.32,52.9 65.32,95.88 0,57.64 -48.35,104.37 -108.02,104.37 -6.25,0 -12.53,-0.55 -18.69,-1.59 0.3,3.47 0.51,7 0.51,10.55 0,64.68 -54.27,117.12 -121.21,117.12 -0.12,0 -0.24,0 -0.36,0 -24.45,0 -48.37,-7.27 -68.67,-20.86 -16.44,13.48 -37.08,20.86 -58.34,20.86 -0.09,0 -0.18,0 -0.27,0 -50.03,0 -90.56,-39.17 -90.56,-87.45 0,-2.08 0.18,-4.14 0.33,-6.2l-0.33 0c-53.55,0 -96.96,-41.95 -96.96,-93.69 0.21,-35.63 20.73,-68.05 52.82,-83.51l0.01 0z"/>
  </g>
  <path id="c200c6c4-addf-434c-9e0f-5ce7230e9a19" class="fil2" d="M1980.04 726.72c-19.28,-20.51 -30.03,-47.63 -30.06,-75.79 0.22,-39.52 21.19,-76.06 55.19,-96.19 -7.49,-10.89 -11.52,-23.79 -11.52,-37.01 0,-37.14 31.17,-67.26 69.62,-67.26 0.23,0 0.46,0 0.69,0 30.24,0 57.02,19.59 66.18,48.41 19.17,-30.13 52.43,-48.38 88.14,-48.38 0.16,0 0.35,0 0.52,0 57.3,0 103.73,44.88 103.73,100.3 -0.01,0.02 -0.01,0.06 -0.01,0.07 0,11.79 -2.15,23.51 -6.35,34.52 2.11,-0.15 4.22,-0.31 6.35,-0.31 45.99,0 83.26,36.01 83.26,80.45 -0.01,2.71 -0.17,5.45 -0.45,8.13 36.78,15.44 62.53,50.65 62.53,91.77 0,55.17 -46.3,99.89 -103.4,99.89 0.01,0 0,0 0,0 -6.02,0 -12.07,-0.52 -18,-1.52 0.31,3.32 0.49,6.69 0.49,10.08 0,61.91 -51.95,112.09 -116.02,112.09 -0.09,0 -0.21,0 -0.31,0 -23.4,0 -46.32,-6.96 -65.76,-19.96 -15.74,12.93 -35.51,20.01 -55.89,20.01 -47.86,0 -86.67,-37.5 -86.67,-83.74 0,-2.01 0.15,-3.96 0.31,-5.94l-0.31 0c-51.26,0 -92.82,-40.15 -92.82,-89.68 0.22,-34.12 19.85,-65.13 50.56,-79.93l0 -0.01z" data-name="&lt;Path&gt;"/>
  <line id="_4f2fbb80-d4ec-4696-8eab-975803e285fc" class="fil3" x1="2176.69" y1="609.47" x2="2176.69" y2= "1232.49"  data-name="&lt;Path&gt;"/>
  <rect class="fil4" x="2159.15" y="609.47" width="33.92" height="623"/>
  <rect class="fil5" x="2167.31" y="609.47" width="18.77" height="623"/>
  <line id="_964f69dd-bb5e-4ecb-a4f0-6b0cfaf1e31d" class="fil3" x1="2178.6" y1="796.06" x2="2067.34" y2= "682.59"  data-name="&lt;Path&gt;"/>
  <rect class="fil5" transform="matrix(0.714106 -0.700037 0.700037 0.714106 2060.65 689.164)" width="18.77" height="158.92"/>
  <line id="_72c4e71e-02d3-4be2-bc6f-3754e61bbdeb" class="fil3" x1="2178.6" y1="893.59" x2="2293.92" y2= "812.68"  data-name="&lt;Path&gt;"/>
  <rect class="fil5" transform="matrix(0.818551 -0.574434 0.574434 0.818551 2173.2 885.848)" width="140.89" height="18.77"/>
  <g id="_09ddf46a-2bb3-497c-83d6-f7ff730d3d58" data-name="&lt;Group&gt;">
   <path class="fil6" d="M2194.23 738.04c19.55,-22.37 30.35,-51.1 30.35,-80.81 0,-41.48 -20.94,-80.16 -55.68,-102.82 7.57,-11.74 11.62,-25.43 11.62,-39.41 0,-0.04 0,-0.09 0,-0.13 0,-39.66 -31.42,-71.81 -70.21,-71.81 -31.48,0.23 -59.01,21.35 -67.39,51.7 -18.56,-31.89 -52.66,-51.57 -89.57,-51.7 -57.79,0 -104.65,47.92 -104.65,107.02 0,0.05 0,0.09 0,0.13 0,12.54 2.16,25.01 6.4,36.81 -2.11,-0.15 -4.25,-0.33 -6.41,-0.33 -46.29,0 -84,38.58 -84,85.9 0,2.93 0.16,5.81 0.44,8.67 -38.36,17.19 -63.09,55.35 -63.09,97.41 0,0.18 0,0.39 0,0.57 0,58.93 46.71,106.69 104.29,106.69 6.04,-0.01 12.07,-0.56 18,-1.62 -0.3,3.55 -0.48,7.15 -0.48,10.78 0,66.09 52.39,119.69 117.04,119.69 0,0 0.05,0 0.05,0 23.87,0 47.18,-7.47 66.6,-21.33 15.65,13.72 35.76,21.32 56.58,21.33 48.3,0 87.44,-40.05 87.44,-89.43 0,-2.13 -0.18,-4.24 -0.31,-6.35l0.32 0c51.72,0 93.61,-42.88 93.61,-95.75 0,-0.14 0,-0.31 0,-0.45 0,-35.49 -19.6,-68.12 -50.95,-84.77l0 0.01z"/>
  </g>
  <path id="c2060184-c570-49c2-acda-2f80a9472e25" class="fil7" d="M2180.71 737.47c18.33,-20.97 28.45,-47.94 28.45,-75.82 0,-38.91 -19.66,-75.23 -52.24,-96.5 7.11,-11.01 10.9,-23.86 10.9,-36.98 0,-0.04 0,-0.09 0,-0.13 0,-37.24 -29.5,-67.41 -65.92,-67.41 -29.52,0.27 -55.28,20.07 -63.14,48.51 -17.44,-29.93 -49.45,-48.42 -84.1,-48.54 -54.24,0 -98.22,44.99 -98.22,100.46 0,0.03 0,0.08 0,0.11 0,11.77 2.04,23.49 6.02,34.56 -1.98,-0.15 -3.99,-0.31 -6.02,-0.31 -43.54,0 -78.83,36.01 -78.83,80.63 0,2.75 0.13,5.46 0.41,8.13 -35.99,16.19 -59.16,52.01 -59.16,91.48 0,0.17 0,0.35 0,0.52 0,55.3 43.73,100.13 97.92,100.13 5.67,-0.01 11.37,-0.52 16.95,-1.52 -0.28,3.34 -0.46,6.71 -0.46,10.1 0,62.06 49.17,112.35 109.84,112.35 0.02,0 0.03,0 0.04,0 22.41,0 44.29,-7.01 62.51,-20.02 14.68,12.88 33.57,20.01 53.11,20.02 45.32,0 82.07,-37.58 82.07,-83.95 0,-2.01 -0.15,-3.99 -0.28,-5.97l0.28 0c48.53,0 87.88,-40.25 87.88,-89.88 0,-0.12 0,-0.24 0,-0.35 0,-33.39 -18.48,-64.05 -48.01,-79.62l0 0z" data-name="&lt;Path&gt;"/>
  <rect class="fil8" x="1981.9" y="609.24" width="25.51" height="634.7"/>
  <rect class="fil5" x="1989.15" y="618.16" width="12.83" height="625.77"/>
  <rect class="fil5" transform="matrix(0.679441 -0.73373 0.73373 0.679441 1987.94 802.45)" width="155.04" height="12.83"/>
  <rect class="fil5" transform="matrix(0.596225 -0.802817 0.802817 0.596225 1879.68 828.811)" width="12.83" height="136.03"/>
  <g id="db20f295-6229-40c0-b196-6bb997b23afd" data-name="&lt;Group&gt;">
   <path class="fil9" d="M1702.64 923.63c-13.73,-14.62 -21.4,-33.95 -21.4,-54.01 0.16,-28.15 15.09,-54.14 39.3,-68.46 -5.34,-7.76 -8.21,-16.96 -8.21,-26.37 0,-26.44 22.2,-47.89 49.56,-47.89 0.16,0 0.34,0 0.5,0 21.52,0 40.57,13.95 47.06,34.46 13.64,-21.46 37.33,-34.46 62.76,-34.46 0.16,0 0.33,0 0.48,0 40.79,0 73.87,31.94 73.87,71.34 0,0.01 0,0.05 0,0.06 0,8.39 -1.54,16.75 -4.53,24.59 1.49,0 2.98,-0.23 4.53,-0.23 32.74,0 59.15,25.71 59.15,57.27 0,1.93 -0.11,3.87 -0.31,5.79 26.69,10.75 44.29,36.57 44.53,65.35 0,39.28 -32.95,71.12 -73.61,71.12 -0.02,-0.01 -0.04,-0.01 -0.05,-0.01 -4.29,0 -8.6,-0.37 -12.82,-1.08 0.23,2.37 0.36,4.76 0.36,7.18 0,44.08 -36.98,79.72 -82.61,79.72 -0.12,0.01 -0.26,0.01 -0.39,0.01 -16.51,0 -32.68,-4.87 -46.44,-13.97 -11.19,9.11 -25.18,14.1 -39.61,14.1 -0.11,0 -0.22,0 -0.33,0 -34.08,0 -61.72,-26.7 -61.72,-59.62 0,-1.44 0,-2.83 0.23,-4.22l-0.24 0c-36.49,0 -66.07,-28.57 -66.07,-63.83 0.18,-24.26 14.15,-46.32 36,-56.84l0.01 0z"/>
  </g>
  <path id="_3f6c00ca-74d6-4e4e-a4d6-8f160f37aa24" class="fil2" d="M1709.3 923.37c-13.17,-13.96 -20.54,-32.44 -20.58,-51.64 0.15,-26.93 14.45,-51.83 37.63,-65.54 -5.11,-7.41 -7.85,-16.22 -7.85,-25.23 0,0 0,0 0,0 0,-25.3 21.25,-45.83 47.43,-45.83 0.16,0 0.33,0 0.5,0 20.59,0 38.82,13.36 45.03,33 13.05,-20.54 35.73,-33 60.07,-33 0.14,0 0.3,0 0.44,0 39.04,0 70.7,30.58 70.7,68.31 0,0.02 0,0.06 0,0.08 0,8.03 -1.47,16 -4.31,23.51 1.44,0 2.85,-0.21 4.32,-0.21 31.32,0 56.73,24.54 56.73,54.81 0,0 0,0.02 0,0.03 0,1.83 -0.1,3.68 -0.28,5.5 25.54,10.29 42.38,34.99 42.62,62.55 0,37.6 -31.56,68.07 -70.47,68.07 -4.09,0.01 -8.18,-0.34 -12.19,-1.02 0.2,2.26 0.33,4.55 0.33,6.87 0,42.18 -35.39,76.38 -79.06,76.38 -0.06,0 -0.14,0 -0.2,0 -15.95,0 -31.56,-4.74 -44.81,-13.61 -10.72,8.8 -24.19,13.61 -38.06,13.61 -0.05,0 -0.11,0 -0.16,0 -32.61,0 -59.15,-25.54 -59.15,-57.07 0,-1.36 0,-2.7 0.2,-4.04l-0.2 0c-34.93,0 -63.25,-27.36 -63.25,-61.11 0.18,-23.25 13.61,-44.37 34.57,-54.42l0 0z" data-name="&lt;Path&gt;"/>
  <line id="_8a7e076a-6ecd-440d-86c8-bd2eb9f9fc08" class="fil3" x1="1843.32" y1="843.46" x2="1843.32" y2= "1268.01"  data-name="&lt;Path&gt;"/>
  <rect class="fil10" x="1831.36" y="843.46" width="23.12" height="424.55"/>
  <rect class="fil5" x="1836.92" y="843.46" width="12.78" height="424.55"/>
  <line id="cd90862a-73c1-467f-8a8f-23aaf7962413" class="fil3" x1="1844.61" y1="970.62" x2="1768.81" y2= "893.28"  data-name="&lt;Path&gt;"/>
  <rect class="fil5" transform="matrix(0.714106 -0.700037 0.700037 0.714106 1764.23 897.748)" width="12.78" height="108.28"/>
  <line id="f406e355-8aa2-4ce0-9f47-8fc27dbb63cd" class="fil3" x1="1844.61" y1="1037.08" x2="1923.2" y2= "981.93"  data-name="&lt;Path&gt;"/>
  <rect class="fil5" transform="matrix(0.818551 -0.574434 0.574434 0.818551 1840.95 1031.78)" width="96.01" height="12.78"/>
  <g id="af04bae7-87e5-447e-b22a-307a28405780" data-name="&lt;Group&gt;">
   <path class="fil11" d="M1920.14 936.23c13.16,-15 20.42,-34.3 20.42,-54.26 0,-27.84 -14.08,-53.81 -37.42,-68.99 5.04,-7.85 7.72,-17.01 7.72,-26.35 0,-0.06 0,-0.13 0,-0.19 0.01,-0.37 0.01,-0.75 0.01,-1.12 0,-25.97 -21.05,-47.02 -47.01,-47.02 -21.2,0 -39.78,14.2 -45.36,34.64 -12.46,-21.38 -35.33,-34.59 -60.08,-34.7 -38.79,0 -70.24,32.15 -70.24,71.84 0,0.02 0,0.07 0,0.09 0,8.42 1.46,16.79 4.3,24.71 -1.42,0 -2.86,-0.24 -4.3,-0.24 -31.23,0.35 -56.38,25.78 -56.38,57.01 0,0.21 0.01,0.45 0.01,0.65 0,1.96 0,3.91 0.28,5.81 -25.76,11.55 -42.34,37.16 -42.34,65.39 0,0.13 0,0.28 0,0.41 0,39.53 31.36,71.6 70.01,71.6 4.06,0 8.13,-0.37 12.12,-1.09 -0.21,2.39 -0.33,4.79 -0.33,7.23 0,44.37 35.18,80.35 78.54,80.35 0.01,0 0.03,0 0.04,0 16.01,0 31.65,-5.01 44.68,-14.3 10.51,9.21 24.02,14.3 37.99,14.3 32.51,-0.37 58.7,-26.84 58.7,-59.36 0,-0.21 -0.01,-0.46 -0.01,-0.67 0,-1.44 0,-2.86 -0.21,-4.27l0.21 0c34.72,0 62.86,-28.78 62.86,-64.29 0,-0.09 0,-0.19 0,-0.28 0,-23.83 -13.17,-45.72 -34.21,-56.9l0 0z"/>
  </g>
  <path id="e5433075-9388-42ed-900f-702a5a1be897" class="fil7" d="M1911.07 935.87c12.32,-14.09 19.13,-32.21 19.13,-50.94 0,-26.14 -13.22,-50.53 -35.11,-64.8 4.79,-7.39 7.33,-16.03 7.33,-24.84 0,-0.01 0,-0.04 0,-0.05 0.01,-0.35 0.02,-0.72 0.02,-1.07 0,-24.37 -19.77,-44.13 -44.14,-44.13 -19.9,0 -37.34,13.32 -42.58,32.52 -11.71,-20.08 -33.2,-32.49 -56.45,-32.56 -36.42,0 -65.92,30.19 -65.92,67.43 0,0.02 0,0.06 0,0.08 0,7.91 1.38,15.77 4.04,23.2 -1.34,0 -2.57,-0.2 -4.04,-0.2 -29.31,0.33 -52.91,24.19 -52.91,53.51 0,0.16 0,0.33 0,0.49 0,1.85 0,3.68 0.26,5.45 -24.17,10.84 -39.73,34.88 -39.73,61.37 0,0.12 0,0.25 0,0.37 0,37.11 29.42,67.2 65.71,67.2 3.81,0 7.62,-0.36 11.37,-1.03 -0.21,2.24 -0.31,4.5 -0.31,6.79 0,41.64 33.02,75.41 73.74,75.41 0,0 0.04,0 0.05,0 15.04,0 29.7,-4.71 41.95,-13.43 9.84,8.65 22.52,13.43 35.63,13.43 0,0 0.02,0 0.02,0 30.52,-0.35 55.09,-25.2 55.09,-55.73 0,-0.2 0,-0.4 0,-0.6 0,-1.33 0,-2.57 -0.21,-3.98l0.2 0c32.69,-0.37 59.01,-26.98 59.01,-59.67 0,-0.22 -0.01,-0.46 -0.01,-0.67 0,-0.04 0,-0.09 0,-0.12 0,-22.39 -12.38,-42.95 -32.15,-53.43l0.01 0z" data-name="&lt;Path&gt;"/>
  <rect class="fil12" x="1777.63" y="849.79" width="17.13" height="426.01"/>
  <rect class="fil5" x="1782.5" y="855.78" width="8.62" height="420.02"/>
  <rect class="fil5" transform="matrix(0.679441 -0.73373 0.73373 0.679441 1781.67 979.444)" width="104.06" height="8.62"/>
  <rect class="fil5" transform="matrix(0.596225 -0.802817 0.802817 0.596225 1709 997.171)" width="8.62" height="91.3"/>
  <rect class="fil13" x="1042.3" y="640.85" width="725.28" height="645.55"/>
  <rect class="fil14" x="566.49" y="640.85" width="1183.08" height="624.98"/>
  <path class="fil15" d="M1806.18 702.57l-1162.51 0 0 -303.48 1120.08 0c23.43,0 42.43,19 42.43,42.43l0 261.05z"/>
  <path class="fil16" d="M643.65 411.1l1110.09 0c23.43,0 42.44,19 42.44,42.43l0 241.22 -1152.53 0 0 -283.65z"/>
  <path class="fil17" d="M643.65 411.1l1110.09 0c23.43,0 42.44,19 42.44,42.43l0 241.22 -1152.53 0 0 -283.65z"/>
  <polygon class="fil18" points="641.08,69.85 239.86,352.41 239.86,590.49 239.86,1286.37 1042.3,1286.37 1042.3,590.49 1042.3,352.41 "/>
  <polygon class="fil16" points="1024.29,347.65 643.65,69.85 263,347.65 263,581.67 1024.29,581.67 "/>
  <polygon class="fil19" points="1024.29,347.65 643.65,69.85 263,347.65 263,581.67 1024.29,581.67 "/>
  <rect class="fil14" x="263" y="581.69" width="761.29" height="684.13"/>
  <polygon class="fil20" points="1073.16,486.51 643.65,179.8 208.99,486.51 180.7,378.64 643.65,41.69 1106.59,378.64 "/>
  <polygon class="fil21" points="1069.22,470.71 643.65,160.98 218.1,470.71 199.92,373.73 643.65,50.8 1087.41,373.73 "/>
  <polygon class="fil22" points="1075.29,384.32 649.71,74.58 224.16,384.32 205.98,287.33 649.71,-35.6 1093.47,287.33 "/>
  <rect class="fil23" x="427.61" y="730.86" width="432.08" height="534.96"/>
  <rect class="fil21" x="427.61" y="730.86" width="432.08" height="92.59"/>
  <rect class="fil21" x="427.61" y="1173.23" width="432.08" height="92.59"/>
  <path class="fil24" d="M1367.23 1073.47c2.13,0 3.86,-1.73 3.86,-3.86 0,-2.13 -1.73,-3.86 -3.86,-3.86 -2.13,0 -3.86,1.73 -3.86,3.86 0,2.13 1.73,3.86 3.86,3.86l0 0z"/>
  <rect class="fil23" x="1260.91" y="874.89" width="210.9" height="390.93"/>
  <rect class="fil23" x="1525.82" y="792.59" width="198.04" height="144.03"/>
  <polygon class="fil25" points="1525.82,856.89 1723.86,856.89 1723.86,792.59 1525.82,792.59 "/>
  <g id="_47cb54cf-6c9b-4864-bf0d-76585f8d162f" data-name="&lt;Group&gt;">
   <path class="fil26" d="M156.12 1000.3c-11.5,-12.15 -17.95,-28.25 -18.01,-44.99 0.16,-23.44 12.61,-45.12 32.77,-57.07 -4.45,-6.45 -6.84,-14.12 -6.84,-21.96 0.38,-22.16 18.47,-39.92 40.63,-39.92 0.22,0 0.45,0 0.67,0 0.15,0 0.31,0 0.47,0 17.96,0 33.85,11.65 39.24,28.78 11.39,-17.89 31.12,-28.73 52.33,-28.73 0.13,0 0.27,0 0.4,0 34,0 61.57,26.65 61.57,59.49 0,0.01 0,0.04 0,0.06 0,7 -1.29,13.97 -3.78,20.52 1.26,0 2.57,-0.18 3.78,-0.18 27.29,0 49.4,21.37 49.4,47.73 0.01,1.6 -0.08,3.22 -0.25,4.81 22.25,8.97 36.91,30.49 37.11,54.48 0,32.74 -27.46,59.28 -61.36,59.28 -3.56,0 -7.12,-0.31 -10.62,-0.91 0.18,1.98 0.28,3.97 0.28,6 0,36.75 -30.86,66.53 -68.85,66.53 -0.06,0.01 -0.13,0.01 -0.19,0.01 -13.9,0 -27.5,-4.13 -39.04,-11.86 -9.34,7.67 -21.06,11.86 -33.15,11.86 -0.05,0 -0.11,0 -0.15,0 -28.29,0 -51.44,-22.25 -51.44,-49.72 0,-1.18 0,-2.37 0.18,-3.52l-0.18 0c-30.43,0 -55.09,-23.84 -55.09,-53.21 0.13,-20.28 11.83,-38.72 30.12,-47.48l0 0z"/>
  </g>
  <path id="_3ed80c62-65f0-4ea6-94fa-12b45cf1e111" class="fil2" d="M161.59 1000.09c-10.94,-11.66 -17.06,-27.06 -17.07,-43.05 0.12,-22.45 12.04,-43.2 31.35,-54.63 -4.25,-6.18 -6.53,-13.52 -6.53,-21.02 0,-0.01 0,-0.01 0,-0.02 0.36,-21.21 17.66,-38.22 38.88,-38.22 0.22,0 0.45,0 0.67,0 0.13,0 0.27,0 0.4,0 17.16,0 32.36,11.13 37.54,27.5 10.88,-17.12 29.78,-27.5 50.07,-27.5 0.13,0 0.26,0 0.39,0 32.53,0 58.92,25.49 58.92,56.94 0,0.02 0,0.05 0,0.06 0,6.69 -1.22,13.34 -3.6,19.59 1.19,0 2.39,-0.18 3.6,-0.18 26.14,0 47.3,20.58 47.3,45.71 0,0.01 0,0.04 0,0.06 0,1.51 -0.08,3.04 -0.23,4.54 21.29,8.6 35.31,29.19 35.49,52.16 0,31.35 -26.28,56.76 -58.74,56.76 -3.44,0 -6.9,-0.3 -10.29,-0.87 0.18,1.88 0.28,3.81 0.28,5.74 0,35.15 -29.5,63.68 -65.92,63.68 0.01,-0.01 0,-0.01 0,-0.01 -13.31,0 -26.33,-3.96 -37.39,-11.36 -8.93,7.33 -20.16,11.34 -31.72,11.34 -0.04,0 -0.1,0 -0.15,0 -27.18,0 -49.22,-21.3 -49.22,-47.58 0,-1.13 0,-2.27 0.18,-3.37l-0.18 0c-29.12,0 -52.73,-22.81 -52.73,-50.95 0.16,-19.34 11.29,-36.91 28.71,-45.32l-0.01 0z" data-name="&lt;Path&gt;"/>
  <line id="b49a21fb-81f1-4431-9ecd-ca46c91409d2" class="fil3" x1="273.32" y1="933.48" x2="273.32" y2= "1287.4"  data-name="&lt;Path&gt;"/>
  <rect class="fil27" x="263.34" y="933.48" width="19.29" height="353.92"/>
  <rect class="fil5" x="267.97" y="933.48" width="10.65" height="353.92"/>
  <line id="_46369620-a42d-4543-9046-c39c6dd80f7a" class="fil3" x1="274.4" y1="1039.47" x2="211.18" y2= "974.99"  data-name="&lt;Path&gt;"/>
  <rect class="fil5" transform="matrix(0.714106 -0.700037 0.700037 0.714106 207.374 978.721)" width="10.65" height="90.27"/>
  <line id="_062fca71-ec11-4619-a966-9015ca52f87c" class="fil3" x1="274.4" y1="1094.87" x2="339.91" y2= "1048.91"  data-name="&lt;Path&gt;"/>
  <rect class="fil5" transform="matrix(0.818551 -0.574434 0.574434 0.818551 271.335 1090.47)" width="80.04" height="10.65"/>
  <g id="a27ca12e-65b6-46c0-899b-83e3c1e240bd" data-name="&lt;Group&gt;">
   <path class="fil28" d="M30.09 1000.3c-11.49,-12.15 -17.94,-28.25 -18,-44.99 0.15,-23.44 12.6,-45.12 32.77,-57.07 -4.45,-6.45 -6.84,-14.12 -6.85,-21.96 0.39,-22.16 18.47,-39.92 40.63,-39.92 0.23,0 0.46,0 0.68,0 0.15,0 0.31,0 0.46,0 17.96,0 33.85,11.65 39.25,28.78 11.38,-17.89 31.12,-28.73 52.32,-28.73 0.13,0 0.28,0 0.4,0 34,0 61.58,26.65 61.58,59.49 0,0.01 0,0.04 0,0.06 0,7 -1.29,13.97 -3.79,20.52 1.26,0 2.58,-0.18 3.78,-0.18 27.29,0 49.41,21.37 49.41,47.73 0,1.6 -0.09,3.22 -0.25,4.81 22.24,8.97 36.91,30.49 37.11,54.48 0,32.74 -27.47,59.28 -61.37,59.28 -3.55,0 -7.11,-0.31 -10.62,-0.91 0.18,1.98 0.29,3.97 0.29,6 0,36.75 -30.87,66.53 -68.85,66.53 -0.06,0.01 -0.13,0.01 -0.19,0.01 -13.9,0 -27.5,-4.13 -39.04,-11.86 -9.34,7.67 -21.06,11.86 -33.15,11.86 -0.05,0 -0.11,0 -0.16,0 -28.29,0 -51.44,-22.25 -51.44,-49.72 0,-1.18 0,-2.37 0.18,-3.52l-0.18 0c-30.42,0 -55.09,-23.84 -55.09,-53.21 0.14,-20.28 11.84,-38.72 30.12,-47.48l0 0z"/>
  </g>
  <path id="_685c56b8-497f-4668-a7ee-09f5fbc3598c" class="fil2" d="M35.57 1000.09c-10.95,-11.66 -17.06,-27.06 -17.08,-43.05 0.13,-22.45 12.04,-43.2 31.35,-54.63 -4.24,-6.18 -6.53,-13.52 -6.53,-21.02 0,-0.01 0,-0.01 0,-0.02 0.36,-21.21 17.67,-38.22 38.88,-38.22 0.23,0 0.46,0 0.68,0 0.13,0 0.26,0 0.39,0 17.17,0 32.37,11.13 37.54,27.5 10.88,-17.12 29.78,-27.5 50.07,-27.5 0.13,0 0.26,0 0.39,0 32.54,0 58.93,25.49 58.93,56.94 0,0.02 0,0.05 0,0.06 0,6.69 -1.23,13.34 -3.6,19.59 1.18,0 2.39,-0.18 3.6,-0.18 26.13,0 47.3,20.58 47.3,45.71 0,0.01 0,0.04 0,0.06 0,1.51 -0.08,3.04 -0.23,4.54 21.28,8.6 35.3,29.19 35.49,52.16 0,31.35 -26.29,56.76 -58.74,56.76 -3.45,0 -6.91,-0.3 -10.3,-0.87 0.18,1.88 0.29,3.81 0.29,5.74 0,35.15 -29.5,63.68 -65.92,63.68 0.01,-0.01 0,-0.01 0,-0.01 -13.31,0 -26.34,-3.96 -37.39,-11.36 -8.94,7.33 -20.16,11.34 -31.72,11.34 -0.05,0 -0.11,0 -0.15,0 -27.19,0 -49.23,-21.3 -49.23,-47.58 0,-1.13 0,-2.27 0.18,-3.37l-0.18 0c-29.11,0 -52.72,-22.81 -52.72,-50.95 0.15,-19.34 11.29,-36.91 28.7,-45.32l0 0z" data-name="&lt;Path&gt;"/>
  <line id="_6da80e84-a8c0-407e-a753-005b95fbf056" class="fil3" x1="147.29" y1="933.48" x2="147.29" y2= "1287.4"  data-name="&lt;Path&gt;"/>
  <rect class="fil29" x="137.32" y="933.48" width="19.29" height="353.92"/>
  <rect class="fil5" x="141.94" y="933.48" width="10.65" height="353.92"/>
  <line id="_956986cd-9b04-40a5-a6ac-3e412b0f623a" class="fil3" x1="148.37" y1="1039.47" x2="85.16" y2= "974.99"  data-name="&lt;Path&gt;"/>
  <rect class="fil5" transform="matrix(0.714106 -0.700037 0.700037 0.714106 81.372 978.725)" width="10.65" height="90.27"/>
  <line id="_52f85bb0-cc07-4469-ba3e-635298721117" class="fil3" x1="148.37" y1="1094.87" x2="213.88" y2= "1048.91"  data-name="&lt;Path&gt;"/>
  <rect class="fil5" transform="matrix(0.818551 -0.574434 0.574434 0.818551 145.313 1090.49)" width="80.04" height="10.65"/>
  <g id="_2b13a509-cfb1-48b6-9a8a-884e17259990" data-name="&lt;Group&gt;">
   <path class="fil30" d="M316.78 1003.1c10.99,-12.53 17.06,-28.64 17.06,-45.3 0,-23.23 -11.76,-44.91 -31.23,-57.58 4.24,-6.56 6.51,-14.23 6.51,-22.05 0,-0.02 0,-0.04 0,-0.06 0.01,-0.32 0.01,-0.65 0.01,-0.97 0,-21.65 -17.55,-39.2 -39.19,-39.2 -17.68,0 -33.18,11.84 -37.82,28.9 -10.4,-17.84 -29.47,-28.86 -50.13,-28.94 -32.44,0.32 -58.57,26.72 -58.57,59.16 0,0.23 0.01,0.49 0.01,0.72 0,0 0,0 0,0 0,7.01 1.21,13.98 3.57,20.57 -1.18,0 -2.36,-0.18 -3.57,-0.18 -26.06,0.26 -47.05,21.47 -47.05,47.53 0,0.26 0.01,0.52 0.01,0.77 0,1.65 0,3.27 0.23,4.86 -21.47,9.64 -35.29,30.99 -35.29,54.52 0,0.1 0,0.22 0,0.32 0,0.18 0,0.36 0,0.55 0,32.35 26.01,58.71 58.36,59.14 3.38,0 6.78,-0.3 10.11,-0.9 -0.18,1.98 -0.29,3.99 -0.29,6.02 0,36.98 29.32,66.87 65.48,66.87 13.37,0 26.42,-4.17 37.3,-11.93 8.75,7.68 20.01,11.93 31.66,11.93 27.08,-0.33 48.87,-22.39 48.87,-49.48 0,-0.18 0,-0.36 0,-0.54 0,-1.21 0,-2.37 -0.18,-3.55l0.17 0c29.03,-0.34 52.4,-23.97 52.4,-53 0,-0.19 0,-0.39 0,-0.57 0,-0.07 0,-0.16 0,-0.23 0,-19.83 -10.93,-38.05 -28.43,-47.38l0 0z"/>
  </g>
  <path id="ffc97756-bf62-44e2-b6c0-20f8128ede8f" class="fil7" d="M309.22 1002.79c10.27,-11.75 15.94,-26.84 15.94,-42.44 0,-21.79 -11.01,-42.11 -29.26,-54.01 3.98,-6.16 6.1,-13.35 6.1,-20.68 0,-0.02 0,-0.05 0,-0.07 0,-0.32 0.01,-0.66 0.01,-0.98 0,-20.31 -16.47,-36.78 -36.78,-36.78 -16.61,0 -31.17,11.15 -35.5,27.19 -9.76,-16.75 -27.68,-27.1 -47.07,-27.16 -30.4,0.41 -54.84,25.19 -54.84,55.6 0,0.2 0.01,0.43 0.01,0.62 0,0.01 0,0.03 0,0.05 0,6.59 1.14,13.15 3.36,19.34 -1.1,0 -2.23,-0.18 -3.37,-0.18 -24.43,0.28 -44.1,20.18 -44.1,44.62 0,0.17 0,0.33 0,0.49 0,1.55 0,3.06 0.23,4.56 -20.15,9.03 -33.13,29.07 -33.13,51.16 0,0.09 0,0.19 0,0.28 0,0.19 0,0.4 0,0.59 0,30.36 24.43,55.07 54.78,55.42 3.19,0 6.36,-0.29 9.49,-0.85 -0.15,1.88 -0.26,3.76 -0.26,5.66 0,34.72 27.52,62.86 61.47,62.86 0.02,0 0.04,0 0.04,0 12.54,0 24.77,-3.91 34.97,-11.19 8.21,7.19 18.76,11.16 29.68,11.16 25.45,-0.27 45.94,-20.99 45.94,-46.44 0,-0.17 -0.01,-0.35 -0.01,-0.52 0,-1.13 0,-2.24 -0.15,-3.34l0.15 0c27.25,-0.31 49.18,-22.49 49.18,-49.74 0,-0.19 0,-0.39 0,-0.57 0,-0.02 0,-0.05 0,-0.07 0,-18.69 -10.35,-35.86 -26.88,-44.58l0 0z" data-name="&lt;Path&gt;"/>
  <rect class="fil31" x="197.96" y="931.04" width="14.27" height="355.16"/>
  <rect class="fil5" x="202.02" y="936.03" width="7.18" height="350.17"/>
  <rect class="fil5" transform="matrix(0.679441 -0.73373 0.73373 0.679441 201.407 1039.13)" width="86.75" height="7.18"/>
  <rect class="fil5" transform="matrix(0.596225 -0.802817 0.802817 0.596225 140.759 1053.89)" width="7.18" height="76.13"/>
  <path class="fil32" d="M1834.63 171.34c-74.14,-77.14 -176.66,-120.81 -283.7,-120.81 -104.97,0 -205.71,41.99 -279.55,116.55 -148.94,150.15 -151.46,394.61 -5.79,547.82 74.27,78.23 177.46,122.57 285.36,122.57 78.07,0 154.5,-23.3 219.31,-66.77l284.46 295.77c3.59,3.76 8.59,5.89 13.8,5.89 4.95,0 9.71,-1.92 13.27,-5.35l70.86 -68.13c3.75,-3.6 5.89,-8.6 5.89,-13.81 0,-4.95 -1.92,-9.71 -5.35,-13.27l-284.46 -295.77c49.16,-67.34 75.68,-148.62 75.68,-232.02 0,-101.66 -39.34,-199.42 -109.77,-272.68l-0.01 0.01zm-88.6 475.6c-52.42,50.4 -122.38,78.61 -195.12,78.61 -155.41,0 -281.45,-126.03 -281.45,-281.44 0,-155.42 126.04,-281.45 281.45,-281.45 76.52,0 149.78,31.2 202.83,86.31 50.41,52.4 78.62,122.4 78.62,195.14 0,76.52 -31.24,149.81 -86.35,202.83l0.02 0z"/>
  <path class="fil33" d="M1342.52 365.8c-31.66,0 -31.71,49.18 0,49.18 31.71,0 31.68,-49.18 0,-49.18z"/>
  <path class="fil34" d="M1563.14 208.25c-85.19,-1.93 -162.73,40.82 -203.93,105.45 -13.45,21.04 24.74,39.63 38.11,18.7 34.13,-53.42 99,-87.45 169.08,-85.57 73.51,1.85 140.4,43.9 175.82,102.26 13.45,22.14 48.63,2 35.29,-20.01 -42.98,-70.91 -126.36,-118.85 -214.37,-120.83z"/>
  <path class="fil21" d="M1865.49 156.37c-74.14,-77.14 -176.66,-120.81 -283.7,-120.81 -104.97,0 -205.71,41.99 -279.55,116.55 -148.93,150.15 -151.46,394.61 -5.78,547.82 74.27,78.23 177.46,122.57 285.36,122.57 78.06,0 154.5,-23.3 219.3,-66.77l284.46 295.77c3.6,3.76 8.59,5.89 13.8,5.89 4.95,0 9.71,-1.92 13.27,-5.35l70.88 -68.15c3.76,-3.61 5.89,-8.6 5.89,-13.81 0,-4.95 -1.92,-9.71 -5.35,-13.27l-284.45 -295.78c49.09,-67.3 75.66,-148.63 75.66,-231.98 0,-101.66 -39.35,-199.42 -109.78,-272.68l-0.01 0zm-88.6 475.6c-52.42,50.4 -122.38,78.61 -195.12,78.61 -155.41,0 -281.44,-126.03 -281.44,-281.44 0,-155.41 126.03,-281.45 281.44,-281.45 76.52,0 149.78,31.2 202.83,86.32 50.41,52.39 78.62,122.39 78.62,195.13 0,76.52 -31.23,149.81 -86.35,202.83l0.02 0z"/>
  <path class="fil21" d="M1373.38 350.76c-31.66,0 -31.71,49.17 0,49.17 31.71,0 31.69,-49.17 0,-49.17z"/>
  <path class="fil21" d="M1594 193.28c-85.18,-1.93 -162.73,40.82 -203.93,105.45 -13.45,21.04 24.74,39.63 38.12,18.7 34.13,-53.42 98.99,-87.45 169.08,-85.57 73.5,1.85 140.4,43.9 175.81,102.26 13.45,22.14 48.64,2.01 35.29,-20.01 -42.98,-70.86 -126.36,-118.82 -214.37,-120.83z"/>
 </g>
</svg>
