<?xml version="1.0" encoding="iso-8859-1"?>
<!-- Generator: Adobe Illustrator 17.1.0, SVG Export Plug-In . SVG Version: 6.00 Build 0)  -->
<!DOCTYPE svg PUBLIC "-//W3C//DTD SVG 1.1//EN" "http://www.w3.org/Graphics/SVG/1.1/DTD/svg11.dtd">
<svg version="1.1" id="Capa_1" xmlns="http://www.w3.org/2000/svg" xmlns:xlink="http://www.w3.org/1999/xlink" x="0px" y="0px"
	 viewBox="0 0 487.886 487.886" style="enable-background:new 0 0 487.886 487.886;" xml:space="preserve">
<path d="M460.121,0H27.765c-2.761,0-5,2.239-5,5v477.876c0,2.761,2.239,5,5,5h34.032c0.033,0.001,0.064,0.01,0.097,0.01
	s0.064-0.009,0.097-0.01h363.9c0.033,0.001,0.064,0.01,0.097,0.01s0.064-0.009,0.097-0.01h34.036c2.761,0,5-2.239,5-5V5
	C465.121,2.239,462.882,0,460.121,0z M395.438,420.998h-12.755v-46.895h12.755V420.998z M372.683,369.104v51.895h-6.934v-51.895
	v-6.372h6.934V369.104z M355.75,420.998h-7.824v-46.895h7.824V420.998z M337.925,420.998h-7.825v-46.895h7.825V420.998z
	 M320.101,420.998h-7.824v-46.895h7.824V420.998z M302.276,369.104v51.895h-12.756v-58.266h12.756V369.104z M400.438,364.104
	h-17.755v-6.372c0-2.761-2.239-5-5-5H360.75c-2.761,0-5,2.239-5,5v6.372h-12.824h-17.825h-12.824v-6.372c0-2.761-2.239-5-5-5
	h-22.756c-2.761,0-5,2.239-5,5v63.267H66.894v-73.307h354.093v73.307h-15.549v-51.895
	C405.438,366.342,403.2,364.104,400.438,364.104z M111.038,266.695v-6.371h6.933v6.371v51.89h-6.933V266.695z M145.796,271.695
	h7.824v46.89h-7.824V271.695z M163.62,271.695h7.825v46.89h-7.825V271.695z M135.796,318.585h-7.825v-46.89h7.825V318.585z
	 M101.038,318.585H88.283v-46.89h12.755V318.585z M181.445,318.585v-51.89v-6.371H194.2v58.261H181.445z M204.2,296.271
	l9.179,22.314H204.2V296.271z M205.727,273.695l7.236-2.977l17.84,43.368l-7.236,2.977L205.727,273.695z M241.953,314.906
	l-21.645-52.617c-1.051-2.553-3.971-3.773-6.526-2.722l-9.582,3.941v-8.186c0-2.761-2.239-5-5-5h-22.755c-2.761,0-5,2.239-5,5v6.371
	H158.62h-17.824h-12.825v-6.371c0-2.761-2.239-5-5-5h-16.933c-2.761,0-5,2.239-5,5v6.371H83.283c-2.761,0-5,2.239-5,5v51.89H66.894
	v-71.453h354.093v71.453H241.989C242.441,317.398,242.438,316.084,241.953,314.906z M420.987,218.012h-64.596v-63.266
	c0-2.761-2.239-5-5-5h-22.755c-2.761,0-5,2.239-5,5v6.372h-12.825h-17.824h-12.824v-6.372c0-2.761-2.239-5-5-5h-16.934
	c-2.761,0-5,2.239-5,5v6.372h-17.755c-2.761,0-5,2.239-5,5v51.895H66.894v-71.466h354.093V218.012z M315.812,218.012v-46.895h7.825
	v46.895H315.812z M297.987,218.012v-46.895h7.824v46.895H297.987z M280.163,218.012v-46.895h7.824v46.895H280.163z M263.229,218.012
	v-51.895v-6.372h6.934v6.372v51.895H263.229z M240.474,218.012v-46.895h12.755v46.895H240.474z M333.636,166.117v-6.372h12.755
	v58.266h-12.755V166.117z M66.894,228.012h168.58h22.755h16.934h17.824h17.824h17.825h22.755h69.596v9.12H66.894V228.012z
	 M420.987,136.545H66.894v-12.75h354.093V136.545z M159.298,113.792h-6.933V61.896v-6.371h6.933V113.792z M142.365,113.792h-12.756
	V66.896h12.756V113.792z M119.609,61.896v51.895h-12.755V55.525h12.755V61.896z M420.987,113.795H169.298v-63.27
	c0-2.761-2.239-5-5-5h-16.933c-2.761,0-5,2.239-5,5v6.371h-12.756v-6.371c0-2.761-2.239-5-5-5h-22.755c-2.761,0-5,2.239-5,5v63.27
	h-29.96V44.132h354.093V113.795z M66.894,328.585h16.345c0.015,0,0.029,0.004,0.044,0.004h22.755h16.933h17.825h17.824h17.825H199.2
	c0.015,0,0.029-0.004,0.044-0.004h21.524c0.027,0,0.053,0.006,0.079,0.006c0.02,0,0.04-0.006,0.06-0.006h200.08v9.107H66.894
	V328.585z M420.987,34.132H66.894V10h354.093V34.132z M32.765,10h24.129v29.132v79.663v22.75v81.466v19.12v81.453v19.107v83.307
	v17.432c0,2.761,2.239,5,5,5s5-2.239,5-5v-12.432h354.093v46.877H66.894v-4.426c0-2.761-2.239-5-5-5s-5,2.239-5,5v4.426H32.765V10z
	 M455.121,477.876h-24.133v-51.877v-83.307v-19.107v-81.453v-19.12v-81.466v-22.75V39.132V10h24.133V477.876z"/>
<g>
</g>
<g>
</g>
<g>
</g>
<g>
</g>
<g>
</g>
<g>
</g>
<g>
</g>
<g>
</g>
<g>
</g>
<g>
</g>
<g>
</g>
<g>
</g>
<g>
</g>
<g>
</g>
<g>
</g>
</svg>
