<?xml version="1.0" encoding="UTF-8"?>
<!DOCTYPE svg PUBLIC "-//W3C//DTD SVG 1.1//EN" "http://www.w3.org/Graphics/SVG/1.1/DTD/svg11.dtd">
<!-- Creator: CorelDRAW 2019 (64-Bit) -->
<svg xmlns="http://www.w3.org/2000/svg" xml:space="preserve" width="100px" height="100px" version="1.1" style="shape-rendering:geometricPrecision; text-rendering:geometricPrecision; image-rendering:optimizeQuality; fill-rule:evenodd; clip-rule:evenodd"
viewBox="0 0 100 100"
 xmlns:xlink="http://www.w3.org/1999/xlink"
 xmlns:xodm="http://www.corel.com/coreldraw/odm/2003">
 <defs>
  <style type="text/css">
   <![CDATA[
    .fil2 {fill:#99FFFF}
    .fil0 {fill:#FFCCCC}
    .fil1 {fill:#FFFFCC}
   ]]>
  </style>
   <mask id="id0">
  <linearGradient id="id1" gradientUnits="userSpaceOnUse" x1="67.16" y1="37.62" x2="54.26" y2="77.22">
   <stop offset="0" style="stop-opacity:0.321569; stop-color:white"/>
   <stop offset="1" style="stop-opacity:0.168627; stop-color:white"/>
  </linearGradient>
    <rect style="fill:url(#id1)" x="35" y="30.17" width="59.27" height="64.56"/>
   </mask>
   <mask id="id2">
  <linearGradient id="id3" gradientUnits="userSpaceOnUse" x1="8.31" y1="58" x2="56.73" y2="44.03">
   <stop offset="0" style="stop-opacity:0.321569; stop-color:white"/>
   <stop offset="1" style="stop-opacity:0.321569; stop-color:white"/>
  </linearGradient>
    <rect style="fill:url(#id3)" x="2.02" y="18.77" width="67.47" height="61.82"/>
   </mask>
   <mask id="id4">
  <linearGradient id="id5" gradientUnits="userSpaceOnUse" x1="58.18" y1="-5.56" x2="57.76" y2="37.42">
   <stop offset="0" style="stop-opacity:0.321569; stop-color:white"/>
   <stop offset="1" style="stop-opacity:0.0901961; stop-color:white"/>
  </linearGradient>
    <rect style="fill:url(#id5)" x="25.16" y="-0.2" width="62.17" height="58.69"/>
   </mask>
 </defs>
 <g id="Layer_x0020_1">
  <metadata id="CorelCorpID_0Corel-Layer"/>
  <path class="fil0" style="mask:url(#id0)" d="M35 71.43c0.06,-5.21 0.73,-14.33 2.19,-21.62 1.47,-7.29 3.72,-12.76 7.76,-15.73 4.03,-2.98 9.85,-3.47 14.38,-3.74 4.53,-0.27 7.77,-0.31 11.13,0.56 3.37,0.88 6.85,2.67 9.8,4.49 2.96,1.83 5.39,3.68 7.55,6.86 2.16,3.18 4.05,7.68 5.35,12.46 1.29,4.77 1.98,9.82 -0.91,16.64 -2.89,6.81 -9.37,15.4 -12.88,19.61 -3.52,4.21 -4.06,4.03 -5.78,3.5 -1.71,-0.54 -4.6,-1.42 -6.65,-2.15 -2.06,-0.73 -3.28,-1.31 -4.76,-1.85 -1.47,-0.53 -3.21,-1.03 -5.06,-1.59 -1.87,-0.56 -3.85,-1.18 -6.99,-1.79 -3.13,-0.61 -7.41,-1.21 -9.94,-2.52 -2.53,-1.31 -3.31,-3.33 -3.99,-4.98 -0.67,-1.65 -1.25,-2.95 -1.2,-8.15z"/>
  <path class="fil1" style="mask:url(#id2)" d="M37.17 20.39c4.87,1.77 13.19,5.43 19.54,9.22 6.35,3.79 10.72,7.71 12.18,12.48 1.45,4.77 -0.02,10.38 -1.27,14.71 -1.25,4.34 -2.28,7.39 -4.21,10.26 -1.94,2.86 -4.77,5.53 -7.46,7.69 -2.69,2.17 -5.23,3.83 -8.93,4.8 -3.69,0.98 -8.54,1.26 -13.45,0.88 -4.9,-0.37 -9.86,-1.39 -15.29,-6.36 -5.43,-4.97 -11.33,-13.89 -14.11,-18.57 -2.78,-4.69 -2.43,-5.14 -1.37,-6.57 1.07,-1.43 2.86,-3.84 4.22,-5.53 1.37,-1.68 2.31,-2.64 3.31,-3.84 0.99,-1.21 2.03,-2.67 3.17,-4.22 1.14,-1.56 2.39,-3.22 3.99,-5.95 1.61,-2.74 3.59,-6.55 5.66,-8.49 2.06,-1.94 4.21,-2 5.99,-2.09 1.77,-0.08 3.17,-0.19 8.03,1.58z"/>
  <path class="fil2" style="mask:url(#id4)" d="M71.33 56.83c-5.13,0.86 -14.23,1.8 -21.66,1.64 -7.44,-0.17 -13.21,-1.43 -16.85,-4.88 -3.64,-3.45 -5.14,-9.09 -6.2,-13.5 -1.05,-4.42 -1.67,-7.6 -1.4,-11.07 0.27,-3.46 1.43,-7.2 2.71,-10.43 1.28,-3.23 2.67,-5.95 5.42,-8.64 2.75,-2.68 6.86,-5.33 11.33,-7.44 4.48,-2.11 9.33,-3.68 16.54,-2.02 7.22,1.65 16.81,6.52 21.57,9.24 4.76,2.72 4.68,3.29 4.46,5.08 -0.23,1.78 -0.59,4.77 -0.95,6.92 -0.36,2.16 -0.72,3.46 -0.99,5.01 -0.27,1.55 -0.45,3.34 -0.68,5.27 -0.23,1.93 -0.49,3.99 -0.54,7.19 -0.05,3.19 0.11,7.51 -0.73,10.23 -0.85,2.72 -2.7,3.84 -4.21,4.79 -1.51,0.96 -2.68,1.75 -7.82,2.61z"/>
 </g>
</svg>
