<svg id="Icons" height="512" viewBox="0 0 74 74" width="512" xmlns="http://www.w3.org/2000/svg"><path d="m32.346 55.2a1 1 0 0 1 -.719-1.7l3.805-3.931a1 1 0 1 1 1.437 1.39l-3.8 3.932a1 1 0 0 1 -.723.309z"/><path d="m14.859 72a3.89 3.89 0 0 1 -2.772-1.148l-8.938-8.939a3.924 3.924 0 0 1 .051-5.592l2.444-2.361 34.067-32.951a1 1 0 0 1 1.4.012l11.868 11.865a1 1 0 0 1 .011 1.4l-5.359 5.544a1 1 0 1 1 -1.438-1.39l4.676-4.84-10.469-10.47-35.814 34.63a1.924 1.924 0 0 0 -.023 2.74l8.937 8.937a1.878 1.878 0 0 0 1.379.563 1.9 1.9 0 0 0 1.36-.584l11.909-12.316a1 1 0 0 1 1.438 1.391l-11.907 12.309a3.888 3.888 0 0 1 -2.779 1.2z"/><path d="m39.622 47.667a1 1 0 0 1 -.719-1.7l3.812-3.938a1 1 0 1 1 1.437 1.39l-3.811 3.939a1 1 0 0 1 -.719.309z"/><path d="m52.276 34.591a1 1 0 0 1 -.707-.293l-11.869-11.868a1 1 0 0 1 .415-1.663l8.672-2.646a1 1 0 0 1 1 .249l5.842 5.842a1 1 0 0 1 .249 1l-2.647 8.672a.993.993 0 0 1 -.956.708zm-9.982-12.4 9.512 9.513 1.985-6.5-4.991-4.995z"/><path d="m54.923 25.919a1 1 0 0 1 -.707-.293l-5.842-5.842a1 1 0 0 1 0-1.414l15.748-15.748a2.167 2.167 0 0 1 3 0l4.26 4.259a2.122 2.122 0 0 1 0 3l-15.752 15.745a1 1 0 0 1 -.707.293zm-4.423-6.842 4.428 4.428 15.036-15.041a.121.121 0 0 0 0-.169l-4.264-4.259h-.168z"/><path d="m17.08 57.92a1 1 0 0 1 -.707-1.707l29.263-29.263a1 1 0 1 1 1.414 1.414l-29.263 29.263a.993.993 0 0 1 -.707.293z"/><path d="m19.321 68.67a1 1 0 0 1 -.977-.8l-2.244-10.745a1 1 0 1 1 1.957-.409l2.243 10.75a1 1 0 0 1 -.775 1.183 1.019 1.019 0 0 1 -.204.021z"/><path d="m17.081 57.92a.958.958 0 0 1 -.2-.021l-10.755-2.243a1 1 0 0 1 .408-1.956l10.75 2.243a1 1 0 0 1 -.2 1.979z"/><path d="m16.258 29.946a13.754 13.754 0 1 1 13.754-13.753 13.769 13.769 0 0 1 -13.754 13.753zm0-25.507a11.754 11.754 0 1 0 11.754 11.754 11.767 11.767 0 0 0 -11.754-11.754z"/><path d="m25.639 25.837a1 1 0 0 1 -.8-.4 2.9 2.9 0 0 0 -.273-.291 11.754 11.754 0 0 0 -16.612 0 2.9 2.9 0 0 0 -.273.292 1 1 0 0 1 -1.6-1.206 5.167 5.167 0 0 1 .456-.5 13.754 13.754 0 0 1 19.438 0 5.051 5.051 0 0 1 .456.5 1 1 0 0 1 -.8 1.6z"/><path d="m16.261 12.677a13.631 13.631 0 0 1 -9.721-4.036c-.14-.139-.265-.281-.39-.423a1.012 1.012 0 0 1 .083-1.418.988.988 0 0 1 1.4.081l.018.021c.1.108.191.218.3.326a11.65 11.65 0 0 0 8.309 3.452 11.645 11.645 0 0 0 8.3-3.448c.113-.112.207-.222.3-.33l1.521 1.3c-.143.162-.268.3-.411.446a13.624 13.624 0 0 1 -9.709 4.029z"/></svg>