<?xml version="1.0"?>
<svg xmlns="http://www.w3.org/2000/svg" viewBox="0 0 64 64" width="512" height="512"><g id="outline"><path d="M42,10H22A20.023,20.023,0,0,0,2,30v4A20.023,20.023,0,0,0,22,54H42A20.023,20.023,0,0,0,62,34V30A20.023,20.023,0,0,0,42,10ZM30,16H41A15.017,15.017,0,0,1,56,31v2A15.017,15.017,0,0,1,41,48H23A15.017,15.017,0,0,1,8,33V31A15.017,15.017,0,0,1,23,16h1v2H23A13.015,13.015,0,0,0,10,31v2A13.015,13.015,0,0,0,23,46H41A13.015,13.015,0,0,0,54,33V31A13.015,13.015,0,0,0,41,18H30Zm0,4H41A11.013,11.013,0,0,1,52,31v2A11.013,11.013,0,0,1,41,44H23A11.013,11.013,0,0,1,12,33V31A11.013,11.013,0,0,1,23,20h1v2a10,10,0,0,0,0,20H40a10,10,0,0,0,0-20H30Zm-4-8h2v2H26Zm0,4h2v2H26Zm0,4h2v2H26Zm14,4a8,8,0,0,1,0,16H24a8,8,0,0,1,0-16ZM60,34A18.021,18.021,0,0,1,42,52H22A18.021,18.021,0,0,1,4,34V30A18.021,18.021,0,0,1,22,12h2v2H23A17.019,17.019,0,0,0,6,31v2A17.019,17.019,0,0,0,23,50H41A17.019,17.019,0,0,0,58,33V31A17.019,17.019,0,0,0,41,14H30V12H42A18.021,18.021,0,0,1,60,30Z"/></g></svg>
