<svg height="512" viewBox="0 0 512 512" width="512" xmlns="http://www.w3.org/2000/svg"><g><path d="m494.685 320.109-52.951 8.825a952.209 952.209 0 0 0 -7.676-150.452c27.092 29.55 74.277 7.081 69.576-31.9-6.448-41.2-60.109-46.3-76.166-10.84q-4.344-24.44-9.974-48.637l73.673-31.756a8 8 0 0 0 -6.334-14.694l-71.154 30.669c-4.9-17.313-8.518-36.117-15.595-52.909-4.157-5.449-13.437-2.506-14.078 4.384 3.7 18.313 10.88 36.4 14.786 54.942l-78.792 33.959c0-.015 0-86.493 0-95.032 1.43-7.808-13.644-14.44-16-.672 0-.012 0 102.584 0 102.6l-77.139 33.251a98.49 98.49 0 0 0 -31.861-7.597 308.638 308.638 0 0 0 -93.7-130.845 8 8 0 0 0 -11.585 1.609 8.2 8.2 0 0 0 1.753 11.018 292.585 292.585 0 0 1 86.509 118.489 100.021 100.021 0 0 0 -83.646 64.456l-47.723 20.567q-6.928-14.226-14.828-27.95a8.01 8.01 0 0 0 -11.063-2.865 7.992 7.992 0 0 0 -2.8 10.845q7.445 12.913 13.992 26.308c-11.258 3.333-24.072 12.18-9.926 19.86 3.7 1.724 13.441-4.428 16.69-5.352a452.526 452.526 0 0 1 36.651 139.616c-3.467 1.559-65.768 8.469-65.834 13.343-6.325 17.029 11.485 12.056 22.966 10.019l44.144-7.355a439.372 439.372 0 0 1 -1.729 74.187 7.986 7.986 0 0 0 6.94 8.782 8.006 8.006 0 0 0 8.968-7.072 455.264 455.264 0 0 0 1.692-78.542l104.968-17.5a79.109 79.109 0 0 0 9.872 23.562c-2.61 19.028.7 47.842 13.209 59.326.1 4.081-4.453 26.854-1.6 29.993 16.209 15.156 15.871-14.6 16.863-22.359 40.783 5.192 36.135-48.184 28.276-72.679a43.339 43.339 0 0 0 22.079 4.223l5.594 8.369c-3.2 4.717-10.276 8.475-11.91 14.656.888 15.77 11.582 29.824 24.182 38.677.41 3.323-1.071 28.153 1.092 30.4 2.932 5.629 11.772 5.051 14.279-.924 1.445-2.264.3-19.821.629-22.24 32.043 6.034 36.046-22.329 19.842-42.957 22.187-24.595 9.858-38.454-4.4-57.561 3.563-4.558 6.871-9.032 10.511-13.852 11.485 8.408 21.069 22.192 34.082 29.829 6.443 17.527 26.824 19.408 38.9 7.71q.9.793 1.867 1.517c-2.63 30.033-9.111 60.319-13.52 90.078 1.288 8.373 13.938 8.46 15.685.04 5.594-27.228 10.127-55.909 13.256-83.906 42.325 2.929 48.712-55.119 9.4-63.266.034-.011 50.614-8.432 51.672-8.612 10.286-2.061 7.889-16.982-2.614-15.783zm-30.685-192.109c32.824 1.828 30.779 47.1 0 48-32.824-1.828-30.779-47.095 0-48zm-61.441-34.459a933.8 933.8 0 0 1 23.3 230.156c-13.741-18.4-35.428-9.912-42.506 9.018-11.119-11.014-21.953-23.908-38.432-27.863 16.2-11.655 31.688-29.537 38.459-45.773a8 8 0 0 0 -.229-6.657c-15.309-30.619-20.17-39.613-37.988-57 2.451-22.127-3.63-44.7-25.167-50.83v-15.465zm-180.176 244.359c.216 7.518-2.455 16.027-2.075 24.514a24.074 24.074 0 0 1 -8.731-.276 62.547 62.547 0 0 1 6.833-22.872q2.003-.642 3.973-1.366zm-10.159 40.538a41.05 41.05 0 0 0 11.972-.465 53.108 53.108 0 0 0 11.235 16.327c.559 6.043-1.248 12.748-8.922 14.294a62.653 62.653 0 0 1 -14.285-30.158zm41.608-11.747c-4.773-12.342-6.986-25.091-13.1-37.721a100.783 100.783 0 0 0 35.268-37.463 119.147 119.147 0 0 0 21.439 51.8c-13.442 12.975-29.587 21.809-43.254 24.259-.117-.294-.237-.577-.353-.877zm-23.713-122.63a86.989 86.989 0 0 0 -26.851 1.875c13.106-26.305 13.086-60.308-.264-84.6a83.97 83.97 0 0 1 37.096 16.777c.41 6.668 6.415 13.318 13.531 13.467 18.946 23.179 23.762 57.048 11.89 84.843-.812 1.906-2.042 4.585-3.419 7.16-.124-8.832-1.153-21.416-12.762-16.72-4.815 3.611-8.334 10.772-13.406 13.818-7.757 7.1-21.844-1.207-17.747-11.262 3.346-8.592 10.289-8.324 16.172-11.1 5.665-4.011 2.89-13.661-4.24-14.258zm78.227 86.929a103.067 103.067 0 0 1 -17.669-53.016c9.895-2.642 22.078-7.342 32.836-10.75a38.038 38.038 0 0 1 10.393 25.834c-19.154 11.937-18.81 5.022-18.07 26.3a93.322 93.322 0 0 1 -7.49 11.632zm2.47-148.366c-23.223-26.452 23.752-36.442 18.573 8.823.034 4.126-1.268 6.256.277 10.5a31.44 31.44 0 0 1 -9.655 5.9c-3.29-4.174-9.3-.829-14.73-3.386-5.143-2.661-4.035-8.494 2.828-8.026 5.917-1.625 7.56-9.617 2.707-13.811zm37.684 98.242a54.111 54.111 0 0 0 -8.092-18.2c7.156-4.866 1.52-12.4-1.582-18.136-4.073-7.913-7-14.546-10.992-22.621a47.945 47.945 0 0 0 12.781-8.3c10.372 11.131 15.177 19.928 26.517 42.554-4.101 8.237-10.893 17.037-18.632 24.703zm-28.5-38.332c1.267 2.642 2.548 5.284 3.869 7.885-1.27.356-2.564.742-3.869 1.143zm-16-96.9c-14.323 5.936-20.178 26-11.578 39.805-12.853 12.708-4.288 32.372 11.578 35.407v36.074c-6.216 2.149-12.478 4.285-17.729 5.675a100.042 100.042 0 0 0 -19.454-80.109c3.948-11.257-5.649-22.7-17.985-17.833-.929-.727-2.411-1.843-4.176-3.049l59.344-25.58zm-120.838 14.521c22.739 29.472 15.646 69.437-5.612 97.44-2.823 19.591 18.721 5.955 26.316 4.659-11.879 27.5 22.546 48.1 42.808 30.373.183 2.894.438 6.939.694 10.78-65.342 62.15-164.872-2.329-139.213-85.583a84.135 84.135 0 0 1 75.007-57.669zm-99.78 176.945a464.629 464.629 0 0 0 -30.018-93.041l35.823-15.44c-10.082 65.893 45.17 122.014 110.151 114.736a78.231 78.231 0 0 0 -4.017 26.645l-104.175 17.37a469.97 469.97 0 0 0 -7.764-50.27zm163.176 122.371c-20.188 7.006-22.49-17.242-24.073-34.613 12.143.229 21.75-5.375 26.43-15.859 4.097 13.728 8.601 42.981-2.357 50.472zm86.117.978c-14.029 6.155-32.487-12.433-36.06-25.812 1.76-1.789 3.514-3.772 5.65-6.15 6.616 8.571 15.1 23.4 28.415 21.476 1.384 2.191 4.15 7.974 1.995 10.486zm-9.3-32.634a7.92 7.92 0 0 0 -.948 1.119c-3.113-4.668-8.15-12.4-13.334-15.377-.218-.473-5.823-8.727-6.239-9.392 8.3-3.142 15.132-7.9 21.833-15.128 15.764 18.444 14.045 23.633-1.309 38.778zm13.728-80.01c-8.941 11.127-20.233 28.424-31.1 36.7-13.145 9.178-32.317 11.715-43.638-2.305 28.694-7.242 55.068-32.114 68.241-56.747a7.9 7.9 0 0 0 .692-1.31c.313-.607.613-1.213.91-1.82 8.146-5.79 19.416 2.009 26.4 8.612a39.888 39.888 0 0 1 -4.62 17.7c-.914-.618-2.6-1.738-4.374-2.72-3.426-2.503-9.722-2.73-12.508 1.89zm34.132 16.11c-1.582-1.6-3.178-3.215-4.809-4.809a55.078 55.078 0 0 0 6.238-14.359c5.207 5.261 11.592 18.068 20.184 9.83a46.561 46.561 0 0 1 -7.12 22.4c-5.015-3.477-9.65-8.167-14.49-13.062zm29.168 27.651a6.454 6.454 0 0 1 -3.855-2.131c10.767-13.729 19.982-46.421 3.555-54.527 22.897-27.045 22.108 60.466.303 56.658zm55.597-15.566c-.025 14.84-18.584 21.456-28.13 10.413 2.768-6.951 4.476-16.518 5.021-24.734 9.886-5.344 23.465 2.721 23.109 14.321z"/><path d="m56 200c43.453-2.281 41.408-62.654 0-64-43.453 2.281-41.408 62.654 0 64zm0-48c21.99 1.248 20.314 31.475 0 32-21.99-1.248-20.314-31.475 0-32z"/><path d="m160 408c-54.195 2.823-51.939 78.226 0 80 54.2-2.823 51.939-78.226 0-80zm0 64c-32.824-1.828-30.779-47.1 0-48 32.824 1.828 30.779 47.1 0 48z"/><path d="m224 104c54.195-2.823 51.939-78.226 0-80-54.195 2.823-51.939 78.226 0 80zm0-64c32.824 1.828 30.779 47.1 0 48-32.824-1.828-30.779-47.095 0-48z"/><path d="m243.328 207.718c6.928.16 10.616-8.94 5.575-13.744-3.847-2.826-12.9-6.066-17.492-6.8-9.855.414-9.573 13.145-2.607 15.479 3.688 1.22 11.656 5.089 14.524 5.065z"/></g></svg>