<?xml version="1.0"?>
<svg xmlns="http://www.w3.org/2000/svg" viewBox="0 0 512 512" width="512" height="512"><g id="outline"><path d="M208,416v32a48,48,0,0,0,96,0V416H480a8,8,0,0,0,8-8V256a8,8,0,0,0-16,0v16H432V152a7.972,7.972,0,0,0-2.346-5.659,24,24,0,1,0-43.308,0A7.972,7.972,0,0,0,384,152v23.23a62.355,62.355,0,0,1-48,0V112h32a8,8,0,0,0,4.649-14.51l-112-80a8,8,0,0,0-9.3,0l-112,80A8,8,0,0,0,144,112h32V216H157.876A29.909,29.909,0,0,0,128,245.876v2.963A32.159,32.159,0,0,0,106.269,266.3L58.1,368H40A32.036,32.036,0,0,0,8,400v8a8,8,0,0,0,8,8Zm-64-16H100.641L144,308.465Zm16,0V296h16V400Zm32,0V296h16V400Zm96,12.261a47.889,47.889,0,0,0-64,0V400a32,32,0,0,1,64,0Zm0-96a47.889,47.889,0,0,0-64,0V304a32,32,0,0,1,64,0Zm0,48a47.889,47.889,0,0,0-64,0V352a32,32,0,0,1,64,0Zm0-96a47.889,47.889,0,0,0-64,0V256a32,32,0,0,1,64,0ZM256,480a32,32,0,1,1,32-32A32.036,32.036,0,0,1,256,480Zm48-184h16V400H304Zm112-32v16H336V264ZM400,160h16v88H400Zm16,136V400H368V296Zm16,56h40v16H432Zm0,32h40v16H432Zm40-48H432V320h40ZM336,400V296h16V400ZM472,288v16H432V288ZM408,128a8,8,0,1,1-8,8A8.009,8.009,0,0,1,408,128ZM384,248H368V195.62a78.246,78.246,0,0,0,16-3.343Zm-32-52.38V248H336V192.277A78.1,78.1,0,0,0,352,195.62ZM256,33.831,343.036,96H168.964ZM288,144a32,32,0,1,1-32-32A32.036,32.036,0,0,1,288,144Zm-67.739-32a48,48,0,1,0,71.478,0H320V280H304V256a48,48,0,0,0-96,0v24H192V112ZM144,245.876A13.892,13.892,0,0,1,157.876,232H176v16H144ZM40,384H63.158a8,8,0,0,0,7.23-4.575l50.34-106.275a16.072,16.072,0,0,1,14.46-9.15H176v16H144.842a8,8,0,0,0-7.23,4.575L82.938,400H24A16.019,16.019,0,0,1,40,384Z"/></g></svg>
