<?xml version="1.0" encoding="iso-8859-1"?>
<!-- Generator: Adobe Illustrator 17.1.0, SVG Export Plug-In . SVG Version: 6.00 Build 0)  -->
<!DOCTYPE svg PUBLIC "-//W3C//DTD SVG 1.1//EN" "http://www.w3.org/Graphics/SVG/1.1/DTD/svg11.dtd">
<svg version="1.1" id="Capa_1" xmlns="http://www.w3.org/2000/svg" xmlns:xlink="http://www.w3.org/1999/xlink" x="0px" y="0px"
	 viewBox="0 0 209.679 209.679" style="enable-background:new 0 0 209.679 209.679;" xml:space="preserve">
<path d="M104.839,164.459c-23.504,0-41.916-8.949-41.916-20.374s18.412-20.374,41.916-20.374s41.916,8.949,41.916,20.374
	S128.343,164.459,104.839,164.459z M104.839,127.711c-20.553,0-37.916,7.498-37.916,16.374s17.363,16.374,37.916,16.374
	s37.916-7.498,37.916-16.374S125.392,127.711,104.839,127.711z M207.679,162.767h-53.68c-0.761,0-1.456-0.432-1.793-1.114
	s-0.258-1.497,0.205-2.102l14.001-18.294c-0.071-1.818-0.448-3.162-1.159-5.116c-5.719-15.739-30.951-27.181-60.068-27.271
	c-0.225,0.039-0.467,0.039-0.691,0c-29.612,0.089-54.921,11.756-60.256,27.807c-0.556,1.673-1.196,4.198-1.318,6.203l12.621,16.68
	c0.458,0.605,0.534,1.418,0.196,2.098s-1.032,1.109-1.791,1.109H2c-1.104,0-2-0.896-2-2v-66.21c0-13.471,11.11-26.004,31.284-35.29
	c19.681-9.059,45.803-14.048,73.555-14.048s53.875,4.989,73.555,14.048c20.175,9.286,31.285,21.819,31.285,35.29v66.21
	C209.679,161.872,208.783,162.767,207.679,162.767z M158.048,158.767h47.631V96.533l-15.445,20.182
	c-0.015,0.02-0.029,0.039-0.044,0.058l-20.159,26.339c-0.011,0.015-0.021,0.029-0.033,0.044L158.048,158.767z M4,158.767h45.924
	L39.341,144.78c-0.026-0.031-0.051-0.064-0.074-0.098L27.95,129.727c-0.021-0.026-0.041-0.053-0.06-0.079l-9.166-12.113
	c-0.021-0.026-0.041-0.053-0.06-0.079l-8.982-11.87c-0.001-0.002-0.002-0.003-0.003-0.004L4,98.075V158.767z M31.53,127.83
	l8.054,10.643c0.259-1.11,0.563-2.167,0.858-3.057c3.166-9.527,12.477-17.648,25.3-23.117l-4.239-10.786
	C43.922,107.7,32.007,117.362,31.53,127.83z M143.923,112.332c12.533,5.351,21.74,13.225,25.09,22.443
	c0.276,0.762,0.516,1.465,0.714,2.152l8.086-10.565c-0.397-10.389-11.881-19.601-29.419-25.404L143.923,112.332z M22.304,115.635
	l5.92,7.824c2.955-10.425,14.938-19.657,31.815-25.671l-4.372-11.123C35.921,93.393,22.779,103.959,22.304,115.635z M149.859,97.229
	c16.851,5.654,28.466,14.469,31.295,24.767l5.454-7.127c-0.465-11.583-13.139-21.861-32.523-28.39L149.859,97.229z M13.289,103.722
	l5.659,7.479c3.021-11.608,16.239-21.732,35.247-28.278l-4.434-11.279C28.118,79.14,13.761,90.826,13.289,103.722z M106.839,104.887
	c12.132,0.214,23.601,2.364,33.366,5.968l4.356-11.083c-10.917-3.153-23.84-5.047-37.723-5.214V104.887z M65.307,100.255
	l4.154,10.568c9.745-3.588,21.206-5.725,33.378-5.937V94.56C89.265,94.748,76.336,96.84,65.307,100.255z M155.558,82.731
	c18.694,6.362,31.495,16.23,34.425,27.729l5.978-7.81c-0.329-12.776-14.348-24.134-35.901-31.369L155.558,82.731z M4.2,91.709
	l5.69,7.521c3.074-12.833,17.502-24.055,38.392-31.35l-3.761-9.567c-4.063,1.383-7.928,2.914-11.564,4.588
	C15.79,70.802,5.714,80.943,4.2,91.709z M161.537,67.52c20.797,7.045,34.922,17.955,37.86,30.639l5.872-7.673
	c-2.079-10.311-12.032-19.982-28.548-27.585c-3.638-1.674-7.503-3.205-11.565-4.588L161.537,67.52z M59.482,85.439l4.354,11.077
	c11.436-3.598,24.815-5.77,39.002-5.956V79.132C86.984,79.312,72.066,81.624,59.482,85.439z M106.839,90.558
	c14.491,0.166,27.872,2.138,39.195,5.468l4.229-10.76c-12.484-3.726-27.39-5.963-43.425-6.135V90.558z M53.567,70.391l4.438,11.291
	c12.985-3.99,28.345-6.372,44.833-6.551V63.083C84.766,63.27,67.782,65.957,53.567,70.391z M106.839,75.131
	c16.664,0.171,32.018,2.477,44.902,6.374l4.497-11.439c-14.127-4.255-31.109-6.809-49.399-6.982V75.131z M48.334,57.078l3.75,9.541
	c14.609-4.603,32.028-7.352,50.755-7.535v-9.855C83.129,49.401,64.358,52.132,48.334,57.078z M106.839,59.083
	c18.941,0.172,36.36,2.789,50.882,7.212l3.623-9.218c-16.024-4.944-34.795-7.676-54.505-7.849V59.083z"/>
<g>
</g>
<g>
</g>
<g>
</g>
<g>
</g>
<g>
</g>
<g>
</g>
<g>
</g>
<g>
</g>
<g>
</g>
<g>
</g>
<g>
</g>
<g>
</g>
<g>
</g>
<g>
</g>
<g>
</g>
</svg>
