<svg id="Capa_1" enable-background="new 0 0 512.043 512.043" height="512" viewBox="0 0 512.043 512.043" width="512" xmlns="http://www.w3.org/2000/svg"><g><path d="m236.118 256.387c-1.19 3.94-5.386 6.18-9.326 4.961-3.969-1.22-6.18-5.414-4.96-9.355 3.713-12.048 7.909-23.471 12.529-34.129 4.706-10.773 9.809-20.75 15.251-29.793 2.154-3.543 6.746-4.677 10.289-2.551 1.135.681 2.013 1.616 2.608 2.665 14.599 24.15 26.448 54.538 34.556 89.008 4.45 18.878 7.767 39.004 9.808 60.037 3.401-5.159 7.143-10.232 11.196-15.222 8.902-10.998 19.39-21.515 31.636-31.323 3.232-2.607 7.938-2.098 10.517 1.134 2.58 3.203 2.069 7.938-1.134 10.517-11.424 9.156-21.175 18.936-29.424 29.112-8.419 10.375-15.335 21.231-20.948 32.258.312 7.37.482 14.825.482 22.365 0 21.402-1.304 42.18-3.799 62.051-2.098 17.008-5.073 33.364-8.844 48.926h45.865c14.089-84.643 20.666-121.89 100.69-238.224-7.342 2.353-14.372 4.904-21.09 7.568-12.983 5.188-24.889 11.027-35.831 17.405-3.573 2.098-8.164.879-10.234-2.693-2.098-3.571-.907-8.163 2.693-10.261 11.338-6.605 23.924-12.756 37.843-18.341 13.154-5.244 27.44-9.921 42.946-13.918 3.997-1.02 8.08 1.389 9.1 5.386.538 2.126.142 4.365-1.135 6.151-32.655 46.517-54.228 80.787-69.195 109.758 8.391-6.775 17.632-12.869 27.78-18.057 21.998-11.254 48.134-18.228 78.493-18.681 4.111-.057 7.513 3.231 7.542 7.37.028 2.069-.794 4.054-2.269 5.471-34.498 33.137-58.593 60.832-74.468 87.619-15.591 26.362-23.245 51.987-25.116 81.411-.255 3.939-3.543 7.029-7.484 7.029-97.769 0-195.538 0-293.308 0-3.912 0-7.228-3.061-7.456-7.029-1.87-29.424-9.553-55.049-25.143-81.411-19.107-32.287-47.538-61.738-74.44-87.619-1.445-1.36-2.324-3.316-2.296-5.471.057-4.139 3.43-7.427 7.569-7.37 30.36.453 56.496 7.427 78.464 18.681 10.177 5.216 19.475 11.31 27.838 18.113-5.074-9.894-10.971-20.381-17.774-31.776-2.126-3.544-.964-8.136 2.579-10.262 3.544-2.126 8.136-.964 10.234 2.579 43.003 71.745 49.466 109.078 60.691 176.57h45.866c-3.742-15.562-6.719-31.918-8.845-48.926-2.466-19.871-3.798-40.648-3.798-62.051 0-7.512.17-14.967.482-22.365-12.303-24.236-31.011-47.594-58.367-67.464-20.296-14.769-45.356-27.581-76.055-37.418 2.013 2.948 4.054 5.925 6.066 8.901 5.811 8.532 11.055 16.412 15.789 23.697 2.239 3.486 1.275 8.107-2.183 10.347-3.488 2.268-8.108 1.275-10.347-2.183-4.989-7.682-10.177-15.478-15.62-23.471-5.896-8.731-11.905-17.377-17.972-25.994-1.219-1.701-1.672-3.94-1.106-6.151 1.021-3.997 5.075-6.406 9.072-5.386 42.066 10.856 75.233 26.702 101.142 45.524 21.997 15.959 38.808 34.072 51.45 53.121.085-.821.17-1.672.255-2.522 1.758-17.121 4.337-33.591 7.654-49.182.879-4.053 4.848-6.633 8.901-5.782 4.025.879 6.605 4.848 5.754 8.9-3.232 15.194-5.754 31.097-7.427 47.537-1.615 15.987-2.494 32.655-2.494 49.89 0 20.807 1.275 40.961 3.685 60.236 2.211 17.802 5.386 34.781 9.383 50.74h50.231c3.996-15.959 7.143-32.939 9.354-50.74 2.41-19.275 3.686-39.43 3.686-60.236 0-37.757-4.195-73.502-11.707-105.477-6.548-27.723-15.562-52.583-26.448-73.389-2.807 5.301-5.442 10.856-7.966 16.639-4.392 10.124-8.389 21.009-11.96 32.546zm-191.316-225.638c0-4.139 3.346-7.483 7.484-7.483 4.167 0 7.513 3.345 7.513 7.483v18.425l14.173 14.174c-.312-3.288-.482-6.549-.482-9.78 0-11.253 1.928-22.081 5.981-30.954 4.365-9.666 11.254-17.093 20.836-20.551 8.561-3.09 18.255-2.637 26.59.879 3.826 1.587 5.612 5.981 3.997 9.779-1.588 3.798-5.982 5.584-9.781 3.969-4.705-1.956-10.941-2.297-15.76-.567-5.415 1.956-9.468 6.52-12.246 12.643-3.118 6.859-4.62 15.563-4.62 24.803 0 9.724 1.644 19.871 4.733 29.027l41.104 41.103c4.479 1.53 9.326 1.842 13.975.906 4.904-.991 9.638-3.401 13.493-7.284 5.216-5.188 7.795-11.991 7.795-18.794 0-6.804-2.579-13.606-7.795-18.794-1.871-1.9-3.94-3.43-6.123-4.62-2.296-1.247-4.733-2.126-7.229-2.637-3.657-.765-6.237-4.167-5.953-7.908.34-4.139.17-8.702-.511-13.352-.681-4.563-1.814-9.155-3.401-13.407-1.445-3.884.51-8.192 4.394-9.61 3.855-1.445 8.164.511 9.61 4.395 2.013 5.386 3.401 10.97 4.224 16.44.511 3.601.794 7.144.85 10.573 1.73.652 3.458 1.417 5.103 2.324 3.515 1.899 6.747 4.28 9.667 7.172 8.107 8.136 12.16 18.766 12.16 29.424 0 10.63-4.053 21.288-12.16 29.396-6.01 5.98-13.409 9.779-21.204 11.338-3.686.737-7.484.992-11.254.709.283 3.742.057 7.54-.68 11.254-1.588 7.795-5.357 15.193-11.339 21.175-8.136 8.106-18.766 12.188-29.425 12.188-10.63 0-21.289-4.082-29.396-12.188-2.891-2.892-5.301-6.151-7.171-9.666-.907-1.645-1.673-3.346-2.325-5.103-12.018-.142-25.739-3.288-36.879-9.638-12.218-6.974-21.431-17.745-22.593-32.57-.425-5.159.142-10.233 1.928-15.108 3.458-9.61 10.857-16.47 20.523-20.863 8.902-4.054 19.73-5.953 30.984-5.953 3.231 0 6.491.142 9.779.454l-14.203-14.205h-18.397c-4.139 0-7.484-3.345-7.484-7.455 0-4.139 3.345-7.483 7.484-7.483h14.031zm291.495 69.959c0-4.139 3.373-7.483 7.512-7.483s7.512 3.345 7.512 7.483v15.846l10.46 10.488c-.142-2.098-.228-4.167-.228-6.236 0-10.035 1.729-19.701 5.331-27.638 3.968-8.73 10.176-15.421 18.878-18.539 4.423-1.615 9.015-2.126 13.692-1.757 13.409 1.049 23.103 9.354 29.368 20.353 5.556 9.751 8.391 21.713 8.589 32.258 4.763 1.871 9.157 4.734 12.756 8.362 7.314 7.314 10.971 16.923 10.971 26.504 0 9.609-3.657 19.219-10.971 26.532-5.386 5.386-12.076 8.788-19.106 10.205-3.005.624-6.067.85-9.128.709.142 3.062-.086 6.122-.681 9.127-1.417 7.03-4.848 13.691-10.233 19.105-7.314 7.313-16.923 10.971-26.505 10.971-9.609 0-19.219-3.657-26.533-10.971-3.6-3.628-6.491-7.993-8.362-12.756-10.545-.198-22.507-3.033-32.259-8.589-10.999-6.293-19.304-15.987-20.353-29.367-.369-4.677.142-9.269 1.757-13.691 3.118-8.702 9.836-14.91 18.54-18.878 7.937-3.601 17.603-5.329 27.638-5.329 2.07 0 4.139.085 6.237.227l-10.517-10.517h-15.818c-4.11 0-7.455-3.345-7.455-7.455 0-4.139 3.345-7.483 7.455-7.483h11.453zm69.592 91.644-35.888-35.886c-7.937-2.637-16.667-4.025-25.059-4.025-8.022 0-15.534 1.275-21.487 3.969-5.159 2.353-9.015 5.754-10.631 10.261-.85 2.324-1.077 5.018-.878 7.483.623 7.711 5.839 13.55 12.784 17.519 7.824 4.45 17.631 6.633 26.221 6.633 1.276 0 2.495-.057 3.601-.142 3.685-.283 7.115 2.211 7.908 5.953.907 4.337 3.005 8.163 6.123 11.31 4.394 4.394 10.148 6.576 15.931 6.576 5.755 0 11.509-2.183 15.903-6.576 3.288-3.288 5.33-7.285 6.18-11.452.766-3.856.54-7.881-.708-11.623zm10.601-10.602c3.742 1.248 7.767 1.475 11.651.709 4.139-.851 8.136-2.92 11.424-6.18 4.394-4.393 6.577-10.147 6.577-15.931 0-5.754-2.183-11.509-6.577-15.902-3.118-3.118-6.973-5.244-11.31-6.123-3.743-.793-6.237-4.224-5.925-7.908h-.028c.085-1.105.142-2.324.142-3.6 0-8.59-2.183-18.397-6.633-26.221-3.969-6.945-9.809-12.189-17.519-12.784-2.466-.198-5.159.028-7.483.879-4.507 1.615-7.909 5.471-10.262 10.63-2.692 5.924-3.968 13.464-3.968 21.486 0 8.391 1.389 17.121 4.024 25.059zm-291.862-33.476c.936-4.65.623-9.468-.935-13.975l-41.075-41.103c-9.185-3.09-19.304-4.706-29.027-4.706-9.242 0-17.944 1.475-24.833 4.621-6.095 2.749-10.659 6.803-12.615 12.217-1.02 2.778-1.304 5.981-1.049 8.93.709 9.155 6.86 16.044 15.053 20.721 9.014 5.159 20.353 7.654 30.274 7.654 1.389 0 2.778-.029 4.167-.143 3.686-.283 7.116 2.211 7.91 5.953.51 2.466 1.389 4.904 2.636 7.2 1.162 2.183 2.693 4.252 4.592 6.151 5.188 5.188 11.992 7.767 18.794 7.767 6.804 0 13.635-2.579 18.823-7.767 3.855-3.883 6.293-8.588 7.285-13.52zm255.238 252.963c-11.169 30.444-16.044 58.394-22.281 95.811h38.184c2.749-28.941 10.999-54.68 26.618-81.042 14.258-24.066 34.612-48.586 62.506-76.593-19.617 2.439-36.965 7.966-52.102 15.704-22.394 11.453-39.998 27.808-52.925 46.12zm-225.388 95.811c-6.236-37.417-11.113-65.366-22.196-95.726-12.926-18.34-30.587-34.725-53.009-46.205-15.137-7.738-32.486-13.266-52.102-15.704 27.922 28.007 48.247 52.526 62.506 76.593 15.618 26.362 23.868 52.101 26.618 81.042z"/></g></svg>