<svg id="Layer_3" enable-background="new 0 0 64 64" height="512" viewBox="0 0 64 64" width="512" xmlns="http://www.w3.org/2000/svg"><path d="m10 54 2-2v-4h4v4l2 2v8h-8z" fill="#f4b2b0"/><path d="m2 54 2-2v-4h4v4l2 2v8h-8z" fill="#f4b2b0"/><g fill="#b3404a"><path d="m53 25h1c.552 0 1-.448 1-1v-10c0-.552-.448-1-1-1h-15v-2h1c.552 0 1-.448 1-1v-8c0-.552-.448-1-1-1h-24c-.552 0-1 .448-1 1v8c0 .552.448 1 1 1h1v2h-15c-.552 0-1 .448-1 1v10c0 .552.448 1 1 1h1v23 3.586l-1.707 1.707c-.188.187-.293.441-.293.707v8c0 .553.448 1 1 1h8 8 34 10c.552 0 1-.447 1-1v-4c0-.553-.448-1-1-1h-1v-3c0-.553-.448-1-1-1h-1v-8h1c.552 0 1-.447 1-1v-4c0-.553-.448-1-1-1h-7zm0 32v-2h6v2zm-12-26v-2h4v2zm6-2h4v2h-4zm10 24h-4v-8h4zm2-12v2h-6v-2zm-42-38h22v6h-22zm2 8h18v2h-18zm-16 4h50v8h-50zm1.707 37.707c.188-.187.293-.441.293-.707v-3h2v3c0 .266.105.52.293.707l1.707 1.707v.586h-6v-.586zm6.293 1.707 1.707-1.707c.188-.187.293-.441.293-.707v-3h2v3c0 .266.105.52.293.707l1.707 1.707v.586h-6zm-8 2.586h6v4h-6zm8 4v-4h6v4zm36-10h-14v-14h14zm-14 2h14v8h-14zm-2 8h-4v-2h4zm18 0v-25c0-.553-.448-1-1-1h-16c-.552 0-1 .447-1 1v21h-5c-.552 0-1 .447-1 1v3h-6v-7c0-.266-.105-.52-.293-.707l-1.707-1.707v-3.586c0-.553-.448-1-1-1h-4c-.552 0-1 .447-1 1v3.586l-1 1-1-1v-3.586c0-.553-.448-1-1-1h-3v-22h46v2h-11c-.552 0-1 .448-1 1v4c0 .552.448 1 1 1h11v28zm12 0h-8v-2h8z"/><path d="m21 36v-8c0-.552-.448-1-1-1h-12c-.552 0-1 .448-1 1v8c0 .553.448 1 1 1h12c.552 0 1-.447 1-1zm-12-7h4v6h-4zm10 6h-4v-6h4z"/><path d="m36 49h8c.552 0 1-.447 1-1v-8c0-.553-.448-1-1-1h-8c-.552 0-1 .447-1 1v8c0 .553.448 1 1 1zm1-8h6v6h-6z"/><path d="m28 39h-12c-.552 0-1 .447-1 1v4c0 .553.448 1 1 1h12c.552 0 1-.447 1-1v-4c0-.553-.448-1-1-1zm-11 2h4v2h-4zm10 2h-4v-2h4z"/><path d="m19 5h18v2h-18z"/></g></svg>