<svg height="512pt" viewBox="0 -6 512 512" width="512pt" xmlns="http://www.w3.org/2000/svg"><g style="fill:none;stroke-width:30;stroke-linecap:round;stroke-linejoin:round;stroke:#000;stroke-miterlimit:10" transform="translate(0 -12.051)"><path d="m480.933594 99.351781v385.597656h-449.867188v-385.597656"/><path d="m93.546875 219.851781h324.90625v265.097656h-324.90625zm0 0"/><path d="m167.632812 436.750219h48.203126v48.199218h-48.203126zm0 0"/><path d="m296.167969 436.750219h48.199219v48.199218h-48.199219zm0 0"/><path d="m304.199219 276.08225h-96.398438c-22.089843 0-40.167969 18.074219-40.167969 40.167969v120.5h176.734376v-120.5c0-22.09375-18.074219-40.167969-40.167969-40.167969zm0 0"/><path d="m167.632812 348.383031h176.734376"/><path d="m256 276.08225v72.300781"/><path d="m304.195312 99.351781h168.703126c13.3125 0 24.101562-10.789062 24.101562-24.101562s-10.789062-24.101563-24.101562-24.101563h-168.703126"/><path d="m207.789062 51.148656h-168.6875c-13.308593 0-24.101562 10.789063-24.101562 24.101563s10.792969 24.101562 24.101562 24.101562h168.6875"/><path d="m207.800781 27.051v72.300781c0 26.617188 21.582031 48.199219 48.199219 48.199219 26.621094 0 48.199219-21.582031 48.199219-48.199219v-72.300781zm0 0"/></g></svg>