<svg height="512pt" viewBox="0 0 512 512" width="512pt" xmlns="http://www.w3.org/2000/svg"><path d="m512 167c0-8.570312-2.425781-16.914062-6.960938-24.050781l-89.746093-142.949219h-318.585938l-89.699219 142.878906c-4.585937 7.210938-7.007812 15.550782-7.007812 24.121094 0 19.554688 12.539062 36.226562 30 42.421875v302.578125h452v-302.578125c17.460938-6.195313 30-22.867187 30-42.421875zm-452 315v-270h30v186.980469h332v-186.980469h30v270zm60-143.019531h272v30h-272zm272-30h-272v-96.980469h272zm75-126.980469h-422c-8.269531 0-15-6.730469-15-15 0-2.859375.804688-5.636719 2.367188-8.097656l80.925781-128.902344h285.414062l80.96875 128.976562c1.519531 2.390626 2.324219 5.164063 2.324219 8.023438 0 8.269531-6.730469 15-15 15zm0 0"/></svg>