<svg id="Capa_1" enable-background="new 0 0 512.095 512.095" height="512" viewBox="0 0 512.095 512.095" width="512" xmlns="http://www.w3.org/2000/svg"><g><path d="m489.429 419.916c-3.078-14.157-14.198-24.526-27.522-27.384 4.799-12.751 2.087-27.709-8.157-37.953-10.239-10.239-25.188-12.954-37.935-8.164-.892-4.173-2.534-8.196-4.912-11.894-5.175-8.045-13.173-13.593-22.518-15.621-19.07-4.143-37.994 7.856-42.451 26.815l-31.749 85.844c-.26.237-.532.459-.782.71-17.258 17.258-17.26 45.364 0 62.659 8.362 8.362 19.489 12.968 31.329 12.968 11.841 0 22.967-4.605 31.33-12.968.251-.251.472-.522.709-.782l85.84-31.776c18.957-4.429 30.964-23.349 26.818-42.454zm-46.286-54.731c8.034 8.034 8.091 21.056.195 29.176l-75.882 60.534-14.023-14.023 60.534-75.882c8.12-7.896 21.142-7.839 29.176.195zm-82.972-14.727c.12-.325.218-.657.292-.995 2.456-11.202 13.551-18.337 24.737-15.905 5.432 1.179 10.079 4.402 13.086 9.078 2.715 4.221 3.781 9.164 3.096 14.077l-58.755 73.652c-3.039-2.339-6.598-3.827-10.398-4.357zm-36.158 133.868c-11.418-11.441-11.42-30.036-.005-41.451.235-.235.485-.442.742-.638.013-.009.026-.02.039-.029 1.278-.958 2.8-1.445 4.326-1.445 1.85 0 3.699.704 5.107 2.112l3.911 3.911.008.008 23.468 23.468.017.017 3.842 3.842c1.348 1.341 2.092 3.143 2.094 5.074.002 1.493-.442 2.911-1.263 4.106-.051.068-.103.136-.152.206-.211.285-.437.561-.692.816-11.428 11.424-30.021 11.424-41.442.003zm134.865-36.492c-.343.074-.681.173-1.01.295l-75.547 27.966c-.529-3.807-2.019-7.368-4.354-10.397l73.643-58.748c10.653-1.48 20.841 5.478 23.16 16.149 2.432 11.205-4.697 22.302-15.892 24.735z"/><g><path d="m470.504 41.543c-26.758-26.759-62.475-41.496-100.569-41.496s-73.811 14.737-100.569 41.496c-2.929 2.929-2.929 7.678 0 10.606 2.929 2.929 7.678 2.929 10.606 0 49.605-49.605 130.32-49.605 179.926 0 49.605 49.606 49.605 130.32 0 179.926l-26.442 26.442c-27.168 27.143-64.824 40.412-103.301 36.402-15.13-1.584-26.541-5.495-36.607-8.945-3.763-1.29-7.327-2.511-10.824-3.521-25.906-11.649-43.281-28.996-53.094-53.003-1.017-3.538-2.252-7.143-3.558-10.951-3.45-10.067-7.361-21.477-8.945-36.604-4.008-38.483 9.261-76.136 36.402-103.305 2.928-2.931 2.925-7.679-.005-10.606s-7.679-2.925-10.606.005c-30.35 30.379-45.188 72.462-40.71 115.464 1.761 16.823 6.149 29.624 9.674 39.909.949 2.769 1.857 5.422 2.642 7.939l-25.449 54.186-34.081 34.081c-2.929 2.929-2.929 7.678 0 10.606 2.929 2.929 7.678 2.929 10.606 0l29.706-29.706 16.27 16.27-77.665 77.64-16.245-16.245 23.973-23.996c2.927-2.931 2.925-7.679-.005-10.606s-7.679-2.925-10.607.005l-25.077 25.101c-2.172-.852-4.505-1.31-6.915-1.31-.01 0-.021 0-.032 0-5.044.008-9.766 1.97-13.278 5.506l-74.655 74.655c-7.138 7.121-11.07 16.621-11.07 26.75s3.932 19.629 11.058 26.738c7.122 7.139 16.622 11.071 26.751 11.071s19.629-3.932 26.744-11.064l74.645-74.644c3.553-3.53 5.515-8.252 5.523-13.296.004-2.421-.454-4.767-1.311-6.949l83.149-83.122 54.187-25.449c2.517.784 5.17 1.693 7.939 2.642 10.286 3.525 23.086 7.913 39.913 9.674 5.044.525 10.069.785 15.071.785 37.633-.001 73.574-14.706 100.392-41.497l26.444-26.444c55.453-55.455 55.453-145.686-.001-201.14zm-416.565 448.84c-4.287 4.298-10.016 6.665-16.13 6.665-6.115 0-11.844-2.367-16.145-6.677-4.297-4.288-6.664-10.017-6.664-16.133 0-6.115 2.367-11.844 6.671-16.137l26.202-26.202 32.275 32.275zm36.816-36.815-32.275-32.276 14.973-14.973 32.275 32.275zm37.853-37.853-12.274 12.274-32.275-32.275 12.291-12.291c.944-.951 2.083-1.094 2.679-1.095h.006c.605 0 1.758.146 2.725 1.112l26.848 26.848c.97.97 1.113 2.127 1.112 2.731-.001.595-.144 1.734-1.112 2.696zm95.155-108.002-19.428-19.428 18.349-39.071c9.56 16.401 23.123 29.774 40.497 39.986z"/><path d="m270.057 241.989s0 .001 0 0c.001.001.001.001.001.001l.002.002c20.253 20.237 46.849 30.355 73.442 30.355s53.185-10.119 73.422-30.357l26.444-26.444c40.491-40.491 40.491-106.375 0-146.866-19.534-19.534-45.613-30.292-73.433-30.292s-53.898 10.758-73.433 30.292l-26.445 26.444c-40.474 40.475-40.476 106.356 0 146.865zm-12.889-94.27 14.219 14.219-16.165 16.165c-1.087-10.139-.434-20.428 1.946-30.384zm1.746 47.906 23.08-23.08 23.451 23.451-29.842 29.842c-7.684-9.101-13.246-19.387-16.689-30.213zm108.405-40.29 30.069-30.069 23.451 23.451-30.069 30.069zm12.845 34.057-30.055 30.055-23.451-23.451 30.055-30.055zm-23.451-44.664-23.451-23.451 30.069-30.069 23.451 23.451zm-10.607 10.607-30.055 30.055-23.451-23.451 30.055-30.055zm-59.897 81.109 29.842-29.842 23.451 23.451-23.081 23.081c-10.822-3.449-21.113-9.008-30.212-16.69zm57.291 20.911c-3.19 0-6.378-.192-9.553-.533l16.162-16.162 14.231 14.231c-6.841 1.638-13.839 2.465-20.84 2.464zm62.817-25.972c-7.79 7.789-16.683 13.811-26.176 18.096l-19.425-19.425 30.055-30.055 23.466 23.466zm26.444-26.444-7.919 7.919-23.466-23.466 30.069-30.069 19.421 19.421c-4.285 9.5-10.31 18.4-18.105 26.195zm23.518-41.997-14.226-14.226 16.163-16.163c1.091 10.139.448 20.43-1.937 30.389zm-1.757-47.908-23.076 23.076-23.451-23.451 29.829-29.829c7.686 9.096 13.25 19.384 16.698 30.204zm-27.304-40.811-29.829 29.829-23.451-23.451 23.074-23.074c10.825 3.445 21.108 9.009 30.206 16.696zm-57.283-20.919c3.191 0 6.38.189 9.557.53l-16.161 16.161-14.226-14.226c6.838-1.638 13.834-2.465 20.83-2.465zm-62.826 25.982c7.795-7.795 16.695-13.819 26.194-18.106l19.421 19.421-30.069 30.069-23.465-23.465zm-26.445 26.445 7.919-7.919 23.466 23.466-30.055 30.055-19.427-19.427c4.281-9.495 10.308-18.386 18.097-26.175z"/></g></g></svg>