<svg id="Capa_1" enable-background="new 0 0 512 512" height="512" viewBox="0 0 512 512" width="512" xmlns="http://www.w3.org/2000/svg"><g><path d="m378.1 0h-318.2c-17.038 0-30.9 13.862-30.9 30.9v95.113c0 4.142 3.358 7.5 7.5 7.5s7.5-3.358 7.5-7.5v-68.557c4.408 2.646 9.529 4.214 15 4.356v163.401c-5.471.142-10.592 1.71-15 4.356v-68.557c0-4.142-3.358-7.5-7.5-7.5s-7.5 3.358-7.5 7.5v320.088c0 17.038 13.862 30.9 30.9 30.9h318.2c17.038 0 30.9-13.862 30.9-30.9v-450.2c0-17.038-13.862-30.9-30.9-30.9zm.093 496.781c-8.716 0-15.807-7.091-15.807-15.807s7.091-15.807 15.807-15.807 15.807 7.091 15.807 15.808c0 8.715-7.091 15.806-15.807 15.806zm.807-46.593v-69.209c0-4.142-3.358-7.5-7.5-7.5s-7.5 3.358-7.5 7.5v72.667c-5.683 2.964-10.329 7.645-13.249 13.355h-154.751c-4.142 0-7.5 3.358-7.5 7.5s3.358 7.5 7.5 7.5h151.412c.18 5.479 1.791 10.602 4.481 15h-265.786c2.69-4.398 4.3-9.521 4.481-15h70.412c4.142 0 7.5-3.358 7.5-7.5s-3.358-7.5-7.5-7.5h-73.751c-2.919-5.71-7.565-10.391-13.249-13.355v-170.317c9.862-5.142 16.614-15.459 16.614-27.329s-6.752-22.187-16.614-27.329v-170.316c5.683-2.964 10.329-7.645 13.249-13.355h263.503c2.919 5.71 7.565 10.391 13.249 13.355v170.316c-9.862 5.142-16.614 15.459-16.614 27.329s6.753 22.187 16.614 27.329v62.649c0 4.142 3.358 7.5 7.5 7.5s7.5-3.358 7.5-7.5v-59.192c5.471-.142 10.592-1.71 15-4.356v172.114c-4.409-2.646-9.53-4.214-15.001-4.356zm-303.386 30.787c0 8.716-7.091 15.807-15.807 15.807s-15.807-7.092-15.807-15.807c0-8.716 7.091-15.807 15.807-15.807s15.807 7.09 15.807 15.807zm-16.614-30.787c-5.471.142-10.592 1.71-15 4.356v-172.114c4.408 2.646 9.529 4.214 15 4.356zm319.193-403.355c-8.716 0-15.807-7.091-15.807-15.807s7.091-15.807 15.807-15.807 15.807 7.091 15.807 15.806c0 8.717-7.091 15.808-15.807 15.808zm-30.781-16.833h-256.824c-.18-5.479-1.791-10.602-4.481-15h265.785c-2.689 4.398-4.3 9.521-4.48 15zm30.781 241.807c-8.716 0-15.807-7.091-15.807-15.807s7.091-15.807 15.807-15.807 15.807 7.091 15.807 15.807-7.091 15.807-15.807 15.807zm.807-46.594v-163.401c5.471-.142 10.592-1.71 15-4.356v172.114c-4.408-2.646-9.529-4.215-15-4.357zm-335-194.188c0-8.716 7.091-15.807 15.807-15.807s15.807 7.091 15.807 15.807-7.091 15.807-15.807 15.807-15.807-7.09-15.807-15.807zm15.807 209.168c8.716 0 15.807 7.091 15.807 15.807s-7.091 15.807-15.807 15.807-15.807-7.091-15.807-15.807 7.091-15.807 15.807-15.807z"/><path d="m271.771 94.896c-6.859 0-13.081 2.77-17.613 7.247-4.532-4.477-10.755-7.247-17.613-7.247-6.842 0-13.05 2.757-17.579 7.214-4.529-4.458-10.737-7.214-17.579-7.214s-13.05 2.757-17.58 7.214c-4.529-4.458-10.737-7.214-17.579-7.214-13.829 0-25.079 11.25-25.079 25.079 0 11.529 7.821 21.259 18.434 24.179-.534 2.034-.821 4.167-.821 6.367 0 11.509 7.794 21.225 18.38 24.164-.522 2.012-.8 4.121-.8 6.293 0 11.507 7.793 21.222 18.376 24.162-.52 2.008-.797 4.112-.797 6.28 0 13.829 11.25 25.079 25.079 25.079s25.079-11.25 25.079-25.079c0-2.168-.277-4.272-.797-6.28 10.583-2.94 18.376-12.655 18.376-24.162 0-2.173-.279-4.282-.8-6.293 10.585-2.939 18.38-12.655 18.38-24.164 0-2.199-.287-4.333-.821-6.367 10.613-2.92 18.434-12.651 18.434-24.179 0-13.828-11.251-25.079-25.08-25.079zm-52.771 65.705c-5.558 0-10.079-4.521-10.079-10.08 0-5.558 4.521-10.079 10.079-10.079s10.079 4.521 10.079 10.079c0 5.559-4.521 10.08-10.079 10.08zm17.545-50.705c5.558 0 10.08 4.521 10.08 10.079s-4.521 10.08-10.08 10.08c-5.558 0-10.079-4.521-10.079-10.08 0-5.557 4.522-10.079 10.079-10.079zm-35.158 0c5.558 0 10.079 4.521 10.079 10.079s-4.521 10.08-10.079 10.08-10.08-4.521-10.08-10.08c.001-5.557 4.522-10.079 10.08-10.079zm-45.238 10.08c0-5.558 4.521-10.079 10.079-10.079s10.079 4.521 10.079 10.079-4.521 10.08-10.079 10.08-10.079-4.522-10.079-10.08zm17.613 30.545c0-5.558 4.521-10.079 10.079-10.079s10.08 4.521 10.08 10.079-4.521 10.08-10.08 10.08c-5.557 0-10.079-4.521-10.079-10.08zm17.579 30.458c0-5.558 4.521-10.079 10.08-10.079 5.558 0 10.079 4.521 10.079 10.079s-4.521 10.079-10.079 10.079-10.08-4.522-10.08-10.079zm27.659 40.521c-5.558 0-10.079-4.521-10.079-10.079s4.521-10.08 10.079-10.08 10.079 4.521 10.079 10.08c0 5.558-4.521 10.079-10.079 10.079zm17.579-30.442c-5.558 0-10.079-4.521-10.079-10.079s4.521-10.079 10.079-10.079 10.08 4.521 10.08 10.079-4.522 10.079-10.08 10.079zm17.58-30.457c-5.558 0-10.08-4.521-10.08-10.08 0-5.558 4.521-10.079 10.08-10.079 5.558 0 10.079 4.521 10.079 10.079 0 5.559-4.522 10.08-10.079 10.08zm17.612-30.546c-5.558 0-10.079-4.521-10.079-10.08 0-5.558 4.521-10.079 10.079-10.079s10.079 4.521 10.079 10.079c.001 5.559-4.521 10.08-10.079 10.08z"/><path d="m461.5 113c-11.855 0-21.5 9.645-21.5 21.5v366c0 6.341 5.159 11.5 11.5 11.5h20c6.341 0 11.5-5.159 11.5-11.5v-53.5c0-4.142-3.358-7.5-7.5-7.5s-7.5 3.358-7.5 7.5v50h-13v-130h13v45c0 4.142 3.358 7.5 7.5 7.5s7.5-3.358 7.5-7.5v-277.5c0-11.855-9.645-21.5-21.5-21.5zm0 15c3.584 0 6.5 2.916 6.5 6.5v11.5h-13v-11.5c0-3.584 2.916-6.5 6.5-6.5zm-6.5 224v-191h13v191z"/><path d="m219 366.846c-13.829 0-25.079 11.25-25.079 25.08 0 13.829 11.25 25.079 25.079 25.079s25.079-11.25 25.079-25.079c0-13.83-11.25-25.08-25.079-25.08zm0 35.158c-5.558 0-10.079-4.521-10.079-10.079s4.521-10.08 10.079-10.08 10.079 4.521 10.079 10.08c0 5.558-4.521 10.079-10.079 10.079z"/></g></svg>