<svg id="Layer_1" enable-background="new 0 0 511 511" viewBox="0 0 511 511" xmlns="http://www.w3.org/2000/svg"><g><path d="m375.5 72v15h81.092c3.217 20.197 19.211 36.19 39.408 39.408v41.592h-80v48.714c-18.206 3.514-32 19.569-32 38.786s13.794 35.272 32 38.786v48.714h80v41.592c-20.197 3.217-36.19 19.211-39.408 39.408h-193.592v-113.505c27.069-3.673 48-26.935 48-54.995s-20.931-51.323-48-54.995v-113.505h96.5v-15h-359.5v367h135.5v-15h-81.092c-3.218-20.197-19.211-36.19-39.408-39.408v-41.592h80v-48.714c18.206-3.514 32-19.569 32-38.786s-13.794-35.272-32-38.786v-48.714h-80v-41.592c20.197-3.218 36.19-19.211 39.408-39.408h193.592v113.505c-27.069 3.673-48 26.935-48 54.995s20.931 51.323 48 54.995v113.505h-96.5v15h359.5v-367zm-360.5 143h33v81h-33zm24.126 209h-24.126v-24.126c11.908 2.824 21.302 12.218 24.126 24.126zm72.874-168.5c0 10.895-7.148 20.151-17 23.326v-46.651c9.852 3.174 17 12.43 17 23.325zm-32-72.5v145h-65v-17h48v-111h-48v-17zm-65-71.874v-24.126h24.126c-2.824 11.908-12.218 21.302-24.126 24.126zm281 144.374c0 19.77-14.239 36.276-33 39.803v-79.606c18.761 3.527 33 20.033 33 39.803zm-81 0c0-19.77 14.239-36.276 33-39.803v79.606c-18.761-3.527-33-20.033-33-39.803zm256.874-168.5h24.126v24.126c-11.908-2.824-21.302-12.218-24.126-24.126zm-72.874 168.5c0-10.895 7.148-20.151 17-23.326v46.651c-9.852-3.174-17-12.43-17-23.325zm32 72.5v-145h65v17h-48v111h48v17zm65-113v81h-33v-81zm-24.126 209c2.824-11.908 12.218-21.302 24.126-24.126v24.126z"/><path d="m87.5 376h16v15h-16z"/><path d="m119.5 376h16v15h-16z"/><path d="m375.5 120h16v15h-16z"/><path d="m407.5 120h16v15h-16z"/></g></svg>