<svg id="Layer_5" enable-background="new 0 0 64 64" viewBox="0 0 64 64" class="amenity__svg"  xmlns="http://www.w3.org/2000/svg"><path d="m57 22v2h-2v-23h-46v23h-2v-2h-6v20h6v-2h2v23h46v-23h2v2h6v-20zm-.5 12.086-2.086-2.086 2.086-2.086.5.5v3.172zm-3.5-3.5-2.086-2.086 2.086-2.086 2.086 2.086zm-29.414 1.414-2.086 2.086-2.086-2.086 2.086-2.086zm-.672-3.5 2.086-2.086 2.086 2.086-2.086 2.086zm2.086 4.914 2.086 2.086-2.086 2.086-2.086-2.086zm1.414-1.414 2.086-2.086 2.086 2.086-2.086 2.086zm3.5-3.5 2.086-2.086 2.086 2.086-2.086 2.086zm2.086 4.914 2.086 2.086-2.086 2.086-2.086-2.086zm1.414-1.414 2.086-2.086 2.086 2.086-2.086 2.086zm3.5-3.5 2.086-2.086 2.086 2.086-2.086 2.086zm2.086 4.914 2.086 2.086-2.086 2.086-2.086-2.086zm1.414-1.414 2.086-2.086 2.086 2.086-2.086 2.086zm3.5-3.5 2.086-2.086 2.086 2.086-2.086 2.086zm-1.414-1.414-1.086-1.086h2.172zm-7 0-1.086-1.086h2.172zm-7 0-1.086-1.086h2.172zm-7 0-1.086-1.086h2.172zm-1.414 1.414-2.086 2.086-2.086-2.086 2.086-2.086zm-3.5 3.5-2.086 2.086-2.086-2.086 2.086-2.086zm1.414 1.414 2.086 2.086-2.086 2.086-2.086-2.086zm3.5 3.5 1.086 1.086h-2.172zm7 0 1.086 1.086h-2.172zm7 0 1.086 1.086h-2.172zm7 0 1.086 1.086h-2.172zm1.414-1.414 2.086-2.086 2.086 2.086-2.086 2.086zm3.5-3.5 2.086-2.086 2.086 2.086-2.086 2.086zm2.086-4.914-1.086-1.086h2.172zm-16.5-3.086v-13h12v13zm12-15h-26v-6h26zm-26 2h12v13h-12zm-4.5 16.086-1.086-1.086h2.172zm-1.414 1.414-2.086 2.086-2.086-2.086 2.086-2.086zm-6.086 5.086v-3.172l.5-.5 2.086 2.086-2.086 2.086zm4-.172 2.086 2.086-2.086 2.086-2.086-2.086zm3.5 3.5 1.086 1.086h-2.172zm16.5 3.086v13h-12v-13zm-12 15h26v6h-26zm26-2h-12v-13h12zm4.5-16.086 1.086 1.086h-2.172zm1.414-1.414 2.086-2.086 2.086 2.086-2.086 2.086zm6.086-7.914-1.586-1.586h1.586zm-4-3.586h-6v-21h6zm-42-21h6v21h-6zm-2.414 23-1.586 1.586v-1.586zm-3.586 14h-2v-16h2zm2-3.586 1.586 1.586h-1.586zm4 3.586h6v21h-6zm42 21h-6v-21h6zm2.414-23 1.586-1.586v1.586zm5.586 2h-2v-16h2z"/></svg>